<svg width="133" height="69" viewBox="0 0 133 69" fill="none" xmlns="http://www.w3.org/2000/svg">
<g clip-path="url(#clip0_16_20052)">
<path d="M133.027 51.9841C133.073 52.0432 133.105 52.1113 133.122 52.1838C133.139 52.2563 133.141 52.3317 133.126 52.4048C133.112 52.4779 133.082 52.5471 133.039 52.6078C132.995 52.6686 132.939 52.7194 132.875 52.7569C132.75 52.8414 132.597 52.8756 132.448 52.8526C132.299 52.8295 132.164 52.7509 132.071 52.6327C132.071 52.6327 128.774 47.9269 126.363 47.0023C125.712 46.7263 125.393 47.0023 124.59 47.6785C123.357 48.7825 121.473 50.4385 116.499 50.0797C116.425 50.078 116.353 50.0615 116.286 50.031C116.22 50.0006 116.16 49.9569 116.111 49.9027C116.061 49.8484 116.024 49.7848 116 49.7156C115.976 49.6463 115.967 49.573 115.972 49.5001C115.983 49.3439 116.054 49.1979 116.17 49.0924C116.286 48.987 116.439 48.9303 116.596 48.9343C121.071 49.2517 122.65 47.8579 123.828 46.8091C124.659 46.0777 125.435 45.4291 126.793 45.9259C129.563 47.0023 132.875 51.7771 133.027 51.9841ZM98.2391 30.5389C97.0423 30.284 95.8127 30.2188 94.5955 30.3457C94.2632 30.3629 93.9303 30.3629 93.598 30.3457C93.4455 30.345 93.2983 30.4014 93.1855 30.5036C93.0726 30.6058 93.0023 30.7464 92.9884 30.8977C92.9769 31.0493 93.0256 31.1993 93.1241 31.3155C93.2225 31.4317 93.3629 31.5046 93.5149 31.5187C93.9024 31.5427 94.2911 31.5427 94.6786 31.5187C94.6912 31.5259 94.7056 31.5298 94.7202 31.5298C94.7348 31.5298 94.7491 31.5259 94.7617 31.5187C94.774 31.8305 94.8593 32.1352 95.0108 32.4084C95.1624 32.6815 95.376 32.9156 95.6345 33.0919C96.3851 33.555 97.2313 33.8428 98.1095 33.9336C98.9877 34.0244 99.8751 33.9159 100.705 33.6163C101.057 33.5328 101.382 33.3627 101.651 33.1216C101.919 32.8805 102.123 32.5761 102.243 32.2363C102.259 32.1638 102.261 32.0888 102.249 32.0156C102.236 31.9424 102.209 31.8724 102.169 31.8096C102.129 31.7468 102.077 31.6925 102.016 31.6496C101.955 31.6068 101.886 31.5764 101.814 31.5601C101.741 31.5438 101.665 31.5419 101.592 31.5546C101.518 31.5672 101.448 31.5942 101.385 31.6339C101.322 31.6737 101.268 31.7254 101.225 31.7861C101.182 31.8468 101.151 31.9154 101.135 31.9879C101.047 32.1417 100.927 32.2753 100.784 32.3799C100.641 32.4846 100.477 32.5579 100.303 32.5951C99.6581 32.8282 98.9698 32.9193 98.2858 32.8621C97.6018 32.8049 96.9384 32.6009 96.3411 32.2639C96.215 32.1804 96.1087 32.0704 96.0298 31.9417C95.9508 31.8129 95.901 31.6686 95.8839 31.5187C96.5771 31.5522 97.267 31.6352 97.9482 31.7671C98.2871 31.8296 98.6295 31.8711 98.9734 31.8913C99.3496 31.8561 99.721 31.7821 100.082 31.6705C100.93 31.442 101.809 31.3488 102.686 31.3945C102.821 31.4619 102.976 31.4736 103.119 31.427C103.262 31.3805 103.38 31.2795 103.448 31.1461C103.488 31.0813 103.513 31.0087 103.522 30.9332C103.531 30.8578 103.523 30.7814 103.5 30.7092C103.476 30.637 103.437 30.5708 103.385 30.5152C103.333 30.4596 103.269 30.4159 103.199 30.3871C102.096 30.1331 100.943 30.1953 99.8739 30.5665C99.4721 30.6631 99.0704 30.7183 98.9457 30.7597C98.6848 30.7337 98.4258 30.6922 98.1699 30.6355M98.1699 28.9381C97.2829 28.6221 96.3338 28.5181 95.399 28.6345C95.253 28.6583 95.122 28.738 95.034 28.8565C94.946 28.9751 94.908 29.1232 94.928 29.2693C94.9413 29.3446 94.9696 29.4166 95.011 29.4811C95.0524 29.5455 95.1062 29.6011 95.1693 29.6448C95.2324 29.6884 95.3036 29.7191 95.3787 29.7352C95.4538 29.7513 95.5314 29.7524 95.6069 29.7385C96.3814 29.6904 97.1579 29.7935 97.8928 30.0421C97.9664 30.0672 98.0445 30.0767 98.122 30.0698C98.1995 30.0629 98.2747 30.0398 98.3426 30.0021C98.4106 29.9643 98.4698 29.9128 98.5164 29.8507C98.563 29.7886 98.596 29.7175 98.6132 29.6419C98.6517 29.4956 98.6312 29.34 98.5561 29.2085C98.4811 29.077 98.3573 28.98 98.2114 28.9381M100.179 29.8903C100.802 29.6982 101.452 29.6051 102.104 29.6143C102.254 29.6144 102.398 29.5572 102.506 29.4544C102.615 29.3516 102.679 29.2112 102.686 29.0623C102.69 28.9868 102.679 28.9114 102.653 28.8405C102.627 28.7695 102.587 28.7045 102.535 28.6492C102.483 28.5939 102.421 28.5494 102.352 28.5185C102.283 28.4875 102.208 28.4706 102.132 28.4689C101.334 28.4672 100.541 28.5834 99.7769 28.8139C99.6385 28.8748 99.5279 28.9849 99.4664 29.1226C99.405 29.2604 99.3971 29.4159 99.4444 29.5591C99.469 29.6302 99.5079 29.6955 99.5587 29.7511C99.6095 29.8067 99.6711 29.8514 99.7399 29.8824C99.8086 29.9134 99.883 29.9301 99.9585 29.9315C100.034 29.9328 100.109 29.9188 100.179 29.8903ZM108.159 28.9933C109.054 26.3762 108.93 23.52 107.812 20.9893C107.785 20.9206 107.744 20.8581 107.692 20.8055C107.64 20.7529 107.578 20.7112 107.51 20.6829C107.441 20.6546 107.368 20.6402 107.294 20.6407C107.22 20.6412 107.146 20.6565 107.078 20.6857C106.938 20.7518 106.829 20.8686 106.772 21.0121C106.716 21.1556 106.716 21.3152 106.773 21.4585C107.74 23.7212 107.848 26.2567 107.078 28.5931C105.222 33.2437 103.739 36.1141 102.589 36.9973C101.204 38.1151 96.4797 39.1225 92.1849 37.0663C92.1017 36.9973 91.977 36.9421 91.8246 36.8455C91.351 36.5664 90.837 36.3616 90.3007 36.2383C90.2279 36.22 90.152 36.2167 90.0778 36.2285C90.0036 36.2403 89.9326 36.2671 89.8691 36.3071C89.8056 36.3471 89.751 36.3996 89.7085 36.4613C89.666 36.523 89.6365 36.5927 89.6219 36.6661C89.5948 36.8154 89.6235 36.9694 89.7026 37.0991C89.7818 37.2288 89.9058 37.3251 90.0514 37.3699C90.481 37.4582 90.8899 37.6268 91.2567 37.8667L91.7554 38.1151C96.7567 40.5163 101.897 39.1225 103.407 37.8943C104.917 36.6661 106.247 34.0165 108.228 28.9933M104.21 20.8789C104.48 20.8681 104.734 20.7519 104.918 20.5556C105.102 20.3593 105.201 20.0986 105.194 19.8301C105.198 19.6097 105.136 19.3932 105.014 19.2091C105.485 19.3183 105.948 19.4612 106.399 19.6369C106.463 19.674 106.533 19.697 106.607 19.7044C106.68 19.7118 106.754 19.7035 106.823 19.6799C106.893 19.6563 106.957 19.6181 107.01 19.5678C107.064 19.5175 107.106 19.4564 107.133 19.3885C107.171 19.3231 107.194 19.2507 107.202 19.1759C107.21 19.101 107.202 19.0253 107.178 18.9538C107.155 18.8823 107.116 18.8165 107.066 18.7606C107.015 18.7048 106.953 18.6601 106.884 18.6295C105.698 18.0458 104.342 17.9039 103.06 18.2293C102.677 18.3782 102.326 18.6012 102.029 18.8854C101.732 19.1696 101.494 19.5093 101.329 19.8853C101.271 20.0286 101.271 20.1882 101.328 20.3317C101.384 20.4752 101.494 20.5919 101.633 20.6581C101.702 20.6875 101.777 20.703 101.852 20.7036C101.927 20.7043 102.002 20.6901 102.071 20.6619C102.141 20.6336 102.204 20.5919 102.257 20.5391C102.31 20.4864 102.353 20.4236 102.382 20.3545C102.544 19.9327 102.861 19.5877 103.268 19.3885C103.211 19.5287 103.183 19.6788 103.185 19.8301C103.177 20.0941 103.273 20.3509 103.451 20.5464C103.629 20.742 103.876 20.8611 104.141 20.8789M121.999 46.4227C122.562 45.9941 122.939 45.3669 123.052 44.6701C123.052 44.3941 123.052 44.1733 123.052 43.9525C123.1 43.4675 122.992 42.9799 122.743 42.5604C122.493 42.141 122.117 41.8117 121.667 41.6203C121.362 41.4271 121.195 41.3443 121.195 41.0959C121.222 40.87 121.287 40.6505 121.389 40.4473C121.51 40.1011 121.571 39.7372 121.57 39.3709C121.581 38.9657 121.495 38.5638 121.32 38.1979C120.763 37.2397 119.921 36.4778 118.91 36.0175C119.74 34.7885 120.219 33.3572 120.295 31.8775C120.308 31.6477 120.308 31.4173 120.295 31.1875C120.135 29.4524 119.293 27.8504 117.954 26.7301C117.275 26.0815 116.928 25.7503 116.928 25.0327C116.928 24.6325 116.928 24.1357 117.053 23.6527C117.053 22.8523 117.233 21.9553 117.233 21.0445C117.332 20.1523 117.199 19.2498 116.847 18.4235C116.495 17.5971 115.937 16.8745 115.224 16.3249C115.627 15.5221 115.849 14.6414 115.875 13.7443C115.891 13.2351 115.787 12.7294 115.571 12.2677C115.323 11.7994 114.973 11.3926 114.546 11.0773C114.119 10.762 113.626 10.5463 113.105 10.4461C112.883 9.85046 112.78 9.21784 112.8 8.58308C112.8 8.23808 112.8 7.87929 112.675 7.47909C112.559 7.02016 112.341 6.5932 112.036 6.23003C111.731 5.86685 111.348 5.57679 110.916 5.38147C110.394 5.13592 109.813 5.04036 109.239 5.10549C108.935 2.73189 108.131 2.34548 106.926 2.20748C106.106 2.14705 105.336 1.78851 104.764 1.20007C104.488 0.859073 104.134 0.5886 103.731 0.411016C103.329 0.233433 102.89 0.15386 102.451 0.178882C101.927 0.245014 101.439 0.482874 101.065 0.855069C100.528 0.369953 99.8368 0.0869106 99.1119 0.0546875C98.7123 0.0707216 98.3208 0.172738 97.9645 0.353783C97.6081 0.534828 97.2954 0.79058 97.0477 1.10346C96.9529 1.21545 96.901 1.35721 96.901 1.50367C96.901 1.65013 96.9529 1.79189 97.0477 1.90388C97.17 2.00389 97.3266 2.05258 97.4843 2.0397C97.642 2.02682 97.7885 1.95337 97.8928 1.83486C98.0219 1.65059 98.1911 1.49778 98.3878 1.38786C98.5845 1.27793 98.8037 1.21374 99.0288 1.20007C99.646 1.29663 100.212 1.59814 100.636 2.05566C100.69 2.12572 100.763 2.17955 100.846 2.21119C100.929 2.24283 101.019 2.25108 101.107 2.23507C101.202 2.23703 101.295 2.21214 101.376 2.16326C101.457 2.11439 101.522 2.04358 101.564 1.95909C101.664 1.79189 101.799 1.64763 101.959 1.53585C102.119 1.42406 102.3 1.34728 102.492 1.31049C102.894 1.31049 103.324 1.50369 103.878 2.00049C104.619 2.75852 105.595 3.24483 106.649 3.38049C107.147 3.38049 107.383 3.50468 107.549 3.71168C107.925 4.39159 108.116 5.15743 108.103 5.93346C108.105 6.02339 108.132 6.11111 108.181 6.18669C108.23 6.26228 108.299 6.32276 108.38 6.3613C108.463 6.4142 108.559 6.44228 108.657 6.44228C108.756 6.44228 108.852 6.4142 108.935 6.3613C109.148 6.25005 109.386 6.19191 109.627 6.19191C109.869 6.19191 110.106 6.25005 110.32 6.3613C110.591 6.47112 110.833 6.64141 111.028 6.85913C111.222 7.07685 111.364 7.33616 111.442 7.61706C111.442 7.96206 111.525 8.26566 111.553 8.61066C111.583 9.42144 111.786 10.2166 112.149 10.9429C112.183 11.0245 112.238 11.0956 112.308 11.149C112.379 11.2023 112.462 11.236 112.551 11.2465C112.95 11.2964 113.332 11.4368 113.668 11.6569C114.005 11.877 114.286 12.1709 114.49 12.5161C114.66 13.1067 114.696 13.7277 114.596 14.334C114.495 14.9403 114.26 15.5167 113.908 16.0213C113.877 16.0956 113.861 16.1753 113.861 16.2559C113.861 16.3364 113.877 16.4162 113.908 16.4905C113.926 16.5672 113.963 16.6381 114.017 16.6961C114.07 16.7542 114.138 16.7974 114.213 16.8217C116.444 17.8429 116.125 20.8237 115.875 23.2525C115.875 23.8045 115.765 24.3565 115.723 24.7981C115.737 25.3097 115.869 25.8112 116.11 26.2636C116.35 26.716 116.692 27.107 117.108 27.4063C117.687 27.8679 118.163 28.4429 118.509 29.0958C118.855 29.7486 119.062 30.4653 119.117 31.2013C119.149 32.8569 118.611 34.4735 117.593 35.7829C117.537 35.8567 117.497 35.9415 117.475 36.0319C117.454 36.1222 117.451 36.216 117.469 36.3073C117.54 36.475 117.674 36.6086 117.843 36.6799C118.848 37.0216 119.708 37.693 120.281 38.5843C120.385 38.7994 120.44 39.0353 120.44 39.2743C120.44 39.5132 120.385 39.7491 120.281 39.9643C119.658 41.5651 120.281 42.0895 121.085 42.5173C121.888 42.9451 122.041 43.0693 121.847 44.4355C121.826 44.6378 121.76 44.833 121.655 45.0071C121.55 45.1813 121.407 45.3301 121.237 45.4429C119.63 46.6435 115.543 46.3951 114.102 46.1881C114.009 46.1821 113.915 46.1976 113.829 46.2335C113.742 46.2694 113.665 46.3247 113.603 46.3951C113.539 46.4588 113.494 46.5387 113.472 46.6262C113.45 46.7138 113.452 46.8056 113.479 46.8919C113.561 47.1255 113.579 47.3769 113.53 47.6197C113.481 47.8625 113.368 48.0878 113.202 48.2719C112.835 48.5595 112.408 48.7609 111.952 48.8612C111.496 48.9616 111.024 48.9583 110.569 48.8515C110.47 48.8312 110.368 48.8357 110.271 48.8646C110.175 48.8935 110.087 48.9459 110.015 49.0171C109.952 49.0872 109.908 49.172 109.886 49.2636C109.864 49.3551 109.866 49.4506 109.891 49.5415C110.112 50.4937 109.89 51.1423 109.406 51.4459C109.129 51.5956 108.82 51.6741 108.505 51.6741C108.191 51.6741 107.881 51.5956 107.605 51.4459C107.437 51.2632 107.323 51.0392 107.272 50.7973C107.236 50.5736 107.15 50.3609 107.021 50.1746C106.891 49.9884 106.721 49.8333 106.524 49.7209C106.325 49.633 106.111 49.5876 105.894 49.5876C105.676 49.5876 105.462 49.633 105.263 49.7209C104.39 50.0659 104.016 49.9693 103.878 49.8727C103.765 49.7724 103.676 49.6488 103.616 49.5106C103.556 49.3723 103.527 49.2227 103.531 49.0723C103.524 48.9573 103.477 48.8483 103.399 48.7631C103.321 48.6779 103.216 48.6215 103.102 48.6031C103.005 48.6031 102.007 48.3271 101.855 46.6573C101.927 45.2005 102.574 43.8312 103.656 42.8485L103.933 42.5035L104.016 42.3793C104.497 41.9185 104.808 41.3095 104.899 40.6509C104.989 39.9922 104.854 39.3224 104.515 38.7499C104.428 38.6243 104.295 38.5381 104.145 38.5096C103.994 38.4812 103.839 38.513 103.712 38.5981C103.627 38.64 103.556 38.705 103.507 38.7857C103.458 38.8663 103.432 38.9592 103.434 39.0535C103.428 39.1632 103.462 39.2714 103.531 39.3571C103.699 39.6177 103.794 39.9175 103.809 40.2265C103.734 40.7464 103.497 41.2295 103.13 41.6065L103.005 41.7583L102.783 42.0067C101.594 43.1596 100.853 44.6946 100.691 46.3399C100.691 46.4641 100.691 46.5607 100.691 46.6849C100.681 47.2748 100.842 47.8551 101.154 48.3567C101.466 48.8583 101.916 49.26 102.451 49.5139C102.485 49.7743 102.575 50.0245 102.713 50.2481C102.852 50.4716 103.036 50.6635 103.254 50.8111C103.637 50.9771 104.053 51.0546 104.471 51.0378C104.888 51.0211 105.296 50.9106 105.665 50.7145C105.775 50.698 105.887 50.698 105.998 50.7145C106.061 50.8444 106.116 50.9781 106.164 51.1147C106.271 51.5279 106.48 51.9075 106.773 52.2187C107.235 52.542 107.778 52.7302 108.341 52.7619C108.904 52.7936 109.465 52.6676 109.96 52.3981C110.327 52.1826 110.628 51.8701 110.829 51.495C111.029 51.12 111.122 50.697 111.096 50.2729C111.109 50.1906 111.109 50.1068 111.096 50.0245C111.627 50.0709 112.161 50.0078 112.667 49.8393C113.172 49.6707 113.637 49.4002 114.033 49.0447C114.458 48.6093 114.692 48.0236 114.684 47.4163C116.291 47.5681 120.087 47.7475 121.944 46.3399M92.6836 17.9533C91.9229 17.8671 91.1533 17.9977 90.4642 18.33C89.775 18.6622 89.1947 19.1824 88.7906 19.8301C88.7279 19.9696 88.7218 20.1279 88.7734 20.2719C88.825 20.4159 88.9304 20.5344 89.0677 20.6029C89.1365 20.6375 89.2116 20.6579 89.2885 20.6627C89.3655 20.6675 89.4425 20.6566 89.5151 20.6308C89.5877 20.605 89.6542 20.5647 89.7107 20.5125C89.7671 20.4602 89.8123 20.3971 89.8435 20.3269C90.077 19.8904 90.4607 19.5523 90.9242 19.3747C90.9092 19.4753 90.9092 19.5776 90.9242 19.6783C90.9167 19.9542 91.0186 20.2218 91.208 20.4233C91.3973 20.6248 91.6587 20.7439 91.9355 20.7547C92.2136 20.7439 92.4764 20.6253 92.668 20.4242C92.8595 20.2231 92.9645 19.9555 92.9607 19.6783C92.9531 19.4763 92.9011 19.2784 92.8083 19.0987C93.2362 19.1104 93.651 19.2476 94.0009 19.493C94.3509 19.7385 94.6204 20.0814 94.7756 20.4787C94.8317 20.6221 94.9394 20.7397 95.0776 20.8085C95.2159 20.8774 95.3749 20.8926 95.5238 20.8513C95.6678 20.7954 95.7857 20.6881 95.8548 20.5504C95.9239 20.4127 95.9392 20.2544 95.8978 20.1061C95.8482 20.0018 95.7927 19.9004 95.7315 19.8025C96.0838 19.2553 96.2362 18.604 96.163 17.9581C96.0899 17.3122 95.7956 16.7111 95.3298 16.2559C93.9444 14.6965 91.2567 15.3451 89.3448 15.8005C89.2715 15.8196 89.2028 15.8532 89.1428 15.8991C89.0827 15.9451 89.0325 16.0025 88.995 16.0681C88.9576 16.1337 88.9337 16.206 88.9248 16.2809C88.9158 16.3558 88.9221 16.4318 88.943 16.5043C88.9579 16.578 88.9872 16.6481 89.0295 16.7103C89.0718 16.7726 89.1262 16.8259 89.1894 16.867C89.2526 16.9081 89.3234 16.9362 89.3976 16.9498C89.4719 16.9633 89.5481 16.962 89.6219 16.9459C91.2567 16.5043 93.5148 15.9799 94.4985 17.0563C94.7303 17.2717 94.8973 17.5473 94.9805 17.852C95.0637 18.1567 95.0599 18.4786 94.9696 18.7813C94.3121 18.2994 93.5267 18.021 92.7113 17.9809M105.18 52.0945C105.107 52.1085 105.037 52.1378 104.976 52.1806C104.915 52.2233 104.864 52.2785 104.826 52.3424C104.788 52.4063 104.764 52.4776 104.756 52.5514C104.748 52.6252 104.755 52.7 104.778 52.7707C105.236 54.7027 105.18 55.5307 104.529 55.7791C103.254 56.4001 99.5552 56.7313 95.0942 56.6761C92.4277 56.758 89.7633 56.4559 87.1835 55.7791C88.8162 51.1731 89.9585 46.4089 90.5916 41.5651L90.7441 40.3369C91.9143 40.7653 93.1133 41.1112 94.3322 41.3719C94.4209 41.7985 94.4628 42.2335 94.457 42.6691C94.4141 43.9992 94.2985 45.3259 94.1106 46.6435C93.8228 48.8361 93.6563 51.0428 93.6119 53.2537C93.6119 53.7781 93.6119 54.2749 93.6811 54.7717C93.679 54.8471 93.6927 54.9222 93.7216 54.992C93.7504 55.0618 93.7937 55.1248 93.8486 55.1768C93.9034 55.2289 93.9687 55.2688 94.0401 55.2941C94.1115 55.3194 94.1874 55.3295 94.263 55.3237C94.4149 55.3165 94.5579 55.2504 94.6615 55.1395C94.7651 55.0286 94.821 54.8817 94.8172 54.7303C94.7315 52.0775 94.8798 49.4223 95.2605 46.7953C95.5653 44.1181 95.8147 42.0205 95.2605 40.6681C95.2282 40.5738 95.1715 40.4897 95.0961 40.4243C95.0207 40.3589 94.9292 40.3144 94.8311 40.2955C93.3279 39.9777 91.8507 39.5486 90.4116 39.0121C90.332 38.9646 90.2411 38.9396 90.1483 38.9396C90.0556 38.9396 89.9647 38.9646 89.8851 39.0121C89.8106 39.0591 89.7472 39.1218 89.6993 39.1956C89.6515 39.2695 89.6204 39.3528 89.608 39.4399C89.608 39.4399 89.414 41.3857 89.414 41.4133C88.7425 46.254 87.5869 51.0156 85.9644 55.6273C85.9454 55.709 85.9454 55.7939 85.9644 55.8757C85.9627 56.0011 85.9907 56.1251 86.046 56.2378C86.1014 56.3505 86.1826 56.4486 86.283 56.5243C87.419 57.5455 93.2932 57.7525 95.0804 57.7939C96.8676 57.8353 102.839 57.7939 105.042 56.8003C106.773 55.9723 106.178 53.7919 105.873 52.4671C105.854 52.3941 105.82 52.3257 105.774 52.2659C105.728 52.2061 105.67 52.1561 105.604 52.1188C105.538 52.0815 105.466 52.0577 105.39 52.0488C105.315 52.0399 105.239 52.046 105.166 52.0669M102.714 40.1437C102.656 40.0074 102.546 39.8994 102.409 39.8426C102.272 39.7858 102.118 39.7849 101.98 39.8401C100.381 40.3851 98.6955 40.6375 97.0061 40.5853C96.8554 40.5853 96.711 40.6449 96.6044 40.751C96.4979 40.8571 96.4381 41.001 96.4381 41.1511C96.4381 41.3011 96.4979 41.4451 96.6044 41.5512C96.711 41.6573 96.8554 41.7169 97.0061 41.7169C98.8411 41.7804 100.672 41.5091 102.409 40.9165C102.549 40.8503 102.658 40.7336 102.715 40.5901C102.772 40.4466 102.771 40.287 102.714 40.1437ZM101.786 15.7453C101.277 16.0013 100.837 16.3758 100.504 16.8371C100.172 17.2983 99.9553 17.8326 99.8739 18.3949C99.852 20.1263 100.256 21.8368 101.052 23.3767C101.536 24.5221 102.035 25.7227 101.73 26.1367C101.426 26.5507 101.052 26.7301 100.096 26.5369C99.2393 26.3105 98.3313 26.3785 97.5187 26.7301C97.2205 26.8477 96.8886 26.8477 96.5905 26.7301C96.4457 26.6289 96.3463 26.4754 96.3134 26.3023C96.3828 26.2452 96.4388 26.1735 96.4771 26.0924C96.5154 26.0113 96.5352 25.9227 96.5351 25.8331C96.5351 25.6794 96.4737 25.5319 96.3646 25.4232C96.2555 25.3145 96.1076 25.2535 95.9532 25.2535C95.8767 25.2485 95.8 25.2623 95.73 25.2936C95.66 25.3248 95.5987 25.3726 95.5514 25.4329C95.4372 25.5214 95.3444 25.6343 95.2796 25.7633C95.2149 25.8922 95.18 26.0339 95.1774 26.1781C95.1693 26.4556 95.2264 26.7312 95.3442 26.9828C95.4621 27.2344 95.6375 27.455 95.8563 27.6271C96.1584 27.8281 96.5088 27.9456 96.8715 27.9674C97.2342 27.9892 97.5962 27.9147 97.9205 27.7513C98.5237 27.4839 99.2052 27.4494 99.8324 27.6547C100.333 27.8418 100.884 27.849 101.39 27.6752C101.896 27.5014 102.325 27.1574 102.603 26.7025C102.779 26.4166 102.866 26.0852 102.853 25.7503C102.74 24.7536 102.459 23.783 102.021 22.8799C101.397 21.638 101.017 20.2892 100.899 18.9055V18.4777C100.963 18.0919 101.113 17.7255 101.339 17.4054C101.564 17.0853 101.859 16.8197 102.201 16.6285C103.836 15.8695 106.358 17.0287 106.358 17.0287C106.461 17.0837 106.58 17.1053 106.696 17.0905C106.813 17.0756 106.922 17.0251 107.009 16.9459C107.096 16.8709 107.157 16.7709 107.184 16.6596C107.212 16.5483 107.204 16.4313 107.161 16.3249C106.608 14.8824 106.272 13.3664 106.164 11.8261C106.157 11.6772 106.092 11.5368 105.984 11.434C105.875 11.3312 105.731 11.2739 105.582 11.2741C105.432 11.2877 105.293 11.3557 105.191 11.4652C105.089 11.5747 105.03 11.718 105.028 11.8675C105.106 13.1318 105.333 14.3825 105.707 15.5935C104.433 15.0964 103.018 15.0964 101.744 15.5935M88.6798 12.2401C89.3951 12.2816 90.109 12.1383 90.7523 11.8239C91.3955 11.5096 91.9463 11.035 92.3511 10.4461C93.0548 11.1936 93.9928 11.6803 95.0111 11.8261C96.0126 11.7585 96.9476 11.3027 97.6157 10.5565C98.381 11.246 99.3569 11.6592 100.387 11.7295C100.881 11.7083 101.364 11.5725 101.797 11.333C102.23 11.0934 102.601 10.7567 102.88 10.3495C103.22 10.6437 103.591 10.8984 103.989 11.1085C104.053 11.1475 104.124 11.1732 104.198 11.1839C104.273 11.1946 104.349 11.1901 104.421 11.1707C104.494 11.1514 104.562 11.1175 104.621 11.0712C104.68 11.0249 104.729 10.9672 104.764 10.9015C104.84 10.7715 104.86 10.6171 104.821 10.4722C104.782 10.3273 104.687 10.2037 104.557 10.1287C104.068 9.91623 103.658 9.55983 103.379 9.10748C103.326 9.01881 103.251 8.94534 103.161 8.8943C103.072 8.84327 102.97 8.81643 102.866 8.81643C102.763 8.81643 102.661 8.84327 102.571 8.8943C102.482 8.94534 102.407 9.01881 102.354 9.10748C101.772 10.1287 101.121 10.5841 100.387 10.5841C99.4566 10.4706 98.5926 10.0475 97.9344 9.38346C97.8748 9.32359 97.8034 9.27676 97.7247 9.24587C97.646 9.21499 97.5617 9.20076 97.4772 9.20409C97.3916 9.21137 97.3087 9.23742 97.2345 9.28036C97.1602 9.32331 97.0964 9.38208 97.0477 9.45248C96.804 9.78163 96.4973 10.0596 96.1454 10.2703C95.7936 10.4811 95.4034 10.6205 94.9973 10.6807C94.089 10.4781 93.2803 9.96549 92.7113 9.23168C92.6576 9.16205 92.5883 9.10584 92.5089 9.06752C92.4295 9.02919 92.3423 9.0098 92.2541 9.01087C92.1614 9.01191 92.0703 9.03501 91.9884 9.07821C91.9064 9.12142 91.8361 9.18348 91.7831 9.25926C91.4229 9.81126 90.3977 11.1085 89.2201 11.1775C88.5231 8.03255 87.597 4.94235 86.4492 1.93147H86.7541C87.1816 1.90471 87.6092 1.98399 87.9984 2.16221C88.3877 2.34043 88.7265 2.61205 88.9846 2.9527C89.046 3.03983 89.13 3.10886 89.2275 3.15257C89.325 3.19628 89.4325 3.21303 89.5388 3.20109C89.6418 3.17257 89.7373 3.12197 89.8186 3.05284C89.9 2.98372 89.9652 2.89772 90.0098 2.80087C90.1899 2.17987 91.6446 1.42087 93.1547 1.50367C93.7867 1.56844 94.3922 1.79079 94.9152 2.15017C95.4382 2.50954 95.8619 2.99433 96.1471 3.55986C96.218 3.69421 96.339 3.79549 96.4841 3.84194C96.6292 3.88839 96.7868 3.87632 96.923 3.80829C97.0577 3.73026 97.1563 3.60276 97.1978 3.45314C97.2392 3.30352 97.2202 3.14365 97.1447 3.00787C96.7633 2.26834 96.1997 1.63732 95.5067 1.17392C94.8137 0.710508 94.014 0.429888 93.1824 0.358289C91.7846 0.306052 90.4218 0.80146 89.3863 1.73829C89.0067 1.41486 88.566 1.17013 88.0903 1.01847C87.6145 0.866816 87.1131 0.811264 86.6155 0.855069C86.2593 0.894778 85.9072 0.964009 85.5626 1.06206C85.4992 1.07516 85.4384 1.09849 85.3825 1.13109C85.3067 1.18083 85.2442 1.24839 85.2007 1.3278C85.1572 1.40721 85.1341 1.49602 85.1331 1.58647C85.1171 1.66849 85.1171 1.75283 85.1331 1.83486C85.1331 1.83486 85.1331 1.83486 85.2024 1.83486C86.4883 5.0681 87.5077 8.40032 88.2503 11.7985C88.2821 11.9072 88.3425 12.0056 88.4254 12.0832C88.5082 12.1609 88.6104 12.215 88.7213 12.2401M101.024 54.7441C101.054 54.8103 101.097 54.87 101.15 54.9197C101.203 54.9694 101.265 55.0082 101.333 55.0338C101.402 55.0595 101.474 55.0715 101.547 55.0691C101.62 55.0668 101.692 55.0501 101.758 55.0201C101.896 54.9593 102.005 54.8477 102.061 54.7088C102.118 54.5698 102.119 54.4142 102.063 54.2749C101.809 53.3256 101.692 52.3451 101.717 51.3631V51.0871C101.715 51.0128 101.698 50.9395 101.668 50.8716C101.638 50.8036 101.594 50.7422 101.54 50.691C101.486 50.6397 101.423 50.5996 101.353 50.5728C101.283 50.5461 101.209 50.5332 101.135 50.5351C100.983 50.5387 100.838 50.6013 100.732 50.7096C100.626 50.8179 100.567 50.9633 100.567 51.1147V51.3631C100.499 52.5713 100.649 53.7819 101.01 54.9373" fill="#F0E5E9"/>
<path d="M45.4 33.1744C45.2645 33.1733 45.1331 33.1282 45.0256 33.046C44.9181 32.9639 44.8404 32.8491 44.8043 32.719L44.2225 31.1458H40.0662L39.4844 32.719C39.4555 32.8503 39.3816 32.9676 39.2754 33.0507C39.1693 33.1338 39.0374 33.1775 38.9024 33.1744C38.8281 33.1821 38.753 33.1743 38.6819 33.1515C38.6108 33.1288 38.5451 33.0916 38.4891 33.0423C38.4331 32.9931 38.3881 32.9327 38.3567 32.8652C38.3253 32.7977 38.3082 32.7244 38.3067 32.65C38.327 32.4843 38.369 32.3219 38.4314 32.167V32.0704L41.2023 24.5908C41.3962 24.1354 41.6733 23.887 42.0751 23.887C42.2733 23.8928 42.4636 23.9657 42.6147 24.0936C42.7658 24.2215 42.8686 24.3969 42.9063 24.5908L45.6771 32.167C45.7462 32.3197 45.7884 32.4831 45.8019 32.65C45.8023 32.7238 45.7871 32.7968 45.7572 32.8643C45.7274 32.9318 45.6835 32.9923 45.6286 33.0418C45.5737 33.0913 45.5089 33.1286 45.4385 33.1515C45.3681 33.1744 45.2936 33.1822 45.2199 33.1744M40.3017 30.0694H43.6683L42.0058 25.3636L40.3017 30.0694ZM53.4078 33.1744C53.8096 33.1744 53.9896 32.9674 53.9896 32.4706V24.5356C54.003 24.4472 53.997 24.3571 53.9721 24.2712C53.9473 24.1853 53.9042 24.1059 53.8456 24.0381C53.7871 23.9704 53.7146 23.9161 53.6331 23.8788C53.5515 23.8416 53.4628 23.8223 53.3731 23.8223C53.2834 23.8223 53.1948 23.8416 53.1133 23.8788C53.0317 23.9161 52.9592 23.9704 52.9007 24.0381C52.8422 24.1059 52.799 24.1853 52.7741 24.2712C52.7492 24.3571 52.7433 24.4472 52.7566 24.5356V30.9664L48.2402 24.4942C47.9077 24.0388 47.7553 23.887 47.4089 23.887C47.0626 23.887 46.8271 24.1354 46.8271 24.5908V32.5396C46.8137 32.6279 46.8197 32.7182 46.8446 32.804C46.8694 32.8899 46.9125 32.9694 46.9711 33.0371C47.0296 33.1048 47.1021 33.1591 47.1836 33.1964C47.2652 33.2336 47.3539 33.2529 47.4436 33.2529C47.5333 33.2529 47.6219 33.2336 47.7034 33.1964C47.785 33.1591 47.8575 33.1048 47.916 33.0371C47.9745 32.9694 48.0177 32.8899 48.0426 32.804C48.0675 32.7182 48.0734 32.6279 48.0601 32.5396V26.1364L52.5766 32.5672C52.8814 33.0226 53.0614 33.1744 53.4078 33.1744ZM57.7995 33.1744C57.8831 33.1788 57.9667 33.1651 58.0445 33.1344C58.1223 33.1036 58.1926 33.0565 58.2505 32.9962C58.3084 32.936 58.3525 32.864 58.3799 32.7851C58.4072 32.7063 58.4172 32.6226 58.4091 32.5396V25.1428H60.0439C60.1288 25.1558 60.2155 25.1504 60.2981 25.1269C60.3807 25.1034 60.4572 25.0624 60.5224 25.0067C60.5876 24.951 60.6399 24.8819 60.6758 24.8041C60.7117 24.7264 60.7303 24.6419 60.7303 24.5563C60.7303 24.4708 60.7117 24.3862 60.6758 24.3085C60.6399 24.2307 60.5876 24.1617 60.5224 24.1059C60.4572 24.0502 60.3807 24.0092 60.2981 23.9857C60.2155 23.9622 60.1288 23.9568 60.0439 23.9698H55.7214C55.6365 23.9568 55.5498 23.9622 55.4672 23.9857C55.3846 24.0092 55.3082 24.0502 55.243 24.1059C55.1778 24.1617 55.1255 24.2307 55.0896 24.3085C55.0537 24.3862 55.0351 24.4708 55.0351 24.5563C55.0351 24.6419 55.0537 24.7264 55.0896 24.8041C55.1255 24.8819 55.1778 24.951 55.243 25.0067C55.3082 25.0624 55.3846 25.1034 55.4672 25.1269C55.5498 25.1504 55.6365 25.1558 55.7214 25.1428H57.3839V32.5672C57.3756 32.6514 57.3858 32.7365 57.414 32.8163C57.4422 32.8962 57.4876 32.9689 57.547 33.0294C57.6065 33.0899 57.6785 33.1367 57.758 33.1665C57.8375 33.1964 57.9227 33.2085 58.0074 33.202M64.9345 33.202C62.2883 33.202 60.9306 30.8698 60.9306 28.5652C60.9306 26.2606 62.316 23.9146 64.9345 23.9146C67.5529 23.9146 68.9937 26.2468 68.9937 28.5652C69.0468 29.138 68.9826 29.7154 68.8051 30.2628C68.6275 30.8101 68.3403 31.3158 67.9607 31.7493C67.5812 32.1828 67.1173 32.5351 66.5971 32.7848C66.077 33.0345 65.5113 33.1764 64.9345 33.202ZM64.9345 24.991C62.9256 24.991 62.1636 26.8402 62.1636 28.5652C62.1636 30.2902 62.8702 32.1256 64.9345 32.1256C66.9987 32.1256 67.7053 30.2764 67.7053 28.5652C67.7053 26.854 66.9849 24.991 64.9345 24.991ZM76.9876 33.202C77.3617 33.202 77.5417 32.995 77.5417 32.4982V24.5632C77.552 24.4791 77.5436 24.3938 77.5172 24.3133C77.4908 24.2328 77.447 24.1591 77.3889 24.0972C77.3308 24.0354 77.2597 23.987 77.1808 23.9554C77.1019 23.9239 77.017 23.9099 76.9321 23.9146C76.8467 23.9102 76.7614 23.9243 76.6819 23.9557C76.6024 23.9872 76.5306 24.0353 76.4715 24.0969C76.4123 24.1584 76.3672 24.2319 76.3391 24.3123C76.311 24.3928 76.3006 24.4784 76.3087 24.5632V30.994L71.8061 24.5218C71.4874 24.0664 71.3351 23.9146 70.961 23.9146C70.5869 23.9146 70.4069 24.163 70.4069 24.6184V32.5672C70.3985 32.6514 70.4088 32.7365 70.437 32.8163C70.4652 32.8962 70.5106 32.9689 70.57 33.0294C70.6294 33.0899 70.7014 33.1367 70.7809 33.1665C70.8604 33.1964 70.9455 33.2085 71.0302 33.202C71.1139 33.2064 71.1975 33.1927 71.2753 33.1619C71.3531 33.1312 71.4233 33.0841 71.4812 33.0238C71.5391 32.9635 71.5832 32.8916 71.6106 32.8128C71.638 32.734 71.6479 32.6502 71.6398 32.5672V26.164L76.1563 32.5948C76.4611 33.0502 76.6274 33.202 76.9876 33.202ZM79.9939 33.202C80.0781 33.2088 80.1628 33.1969 80.2418 33.167C80.3208 33.1371 80.3921 33.09 80.4505 33.0292C80.5089 32.9683 80.5529 32.8953 80.5793 32.8154C80.6058 32.7355 80.6141 32.6507 80.6035 32.5672V24.5632C80.6167 24.4767 80.611 24.3885 80.5868 24.3044C80.5626 24.2203 80.5204 24.1425 80.4632 24.0762C80.4059 24.0098 80.335 23.9566 80.2552 23.9201C80.1754 23.8836 80.0887 23.8647 80.0009 23.8647C79.9131 23.8647 79.8263 23.8836 79.7465 23.9201C79.6667 23.9566 79.5958 24.0098 79.5386 24.0762C79.4814 24.1425 79.4392 24.2203 79.415 24.3044C79.3907 24.3885 79.385 24.4767 79.3982 24.5632V32.5672C79.3879 32.6495 79.3959 32.733 79.4216 32.8118C79.4473 32.8907 79.49 32.9629 79.5469 33.0235C79.6037 33.084 79.6732 33.1314 79.7505 33.1623C79.8277 33.1931 79.9108 33.2067 79.9939 33.202ZM3.58818 57.7108C3.72882 57.6893 3.8571 57.6183 3.94975 57.5107C4.04241 57.4031 4.09333 57.266 4.09333 57.1243C4.09333 56.9825 4.04241 56.8455 3.94975 56.7379C3.8571 56.6304 3.72882 56.5594 3.58818 56.5378H1.24682V49.1272C1.24682 49.0457 1.23071 48.9649 1.19938 48.8896C1.16805 48.8142 1.12215 48.7457 1.06426 48.6881C1.00636 48.6304 0.93763 48.5847 0.861991 48.5535C0.786352 48.5223 0.705321 48.5062 0.62345 48.5062C0.541579 48.5062 0.460463 48.5223 0.384824 48.5535C0.309185 48.5847 0.24045 48.6304 0.182558 48.6881C0.124667 48.7457 0.0787635 48.8142 0.0474328 48.8896C0.0161022 48.9649 -4.90253e-06 49.0457 -4.8635e-06 49.1272V57.0346C-0.0104739 57.1235 -0.0010529 57.2137 0.0275614 57.2986C0.0561757 57.3835 0.103246 57.461 0.165477 57.5256C0.227708 57.5903 0.303486 57.6404 0.387445 57.6724C0.471404 57.7044 0.561453 57.7175 0.6511 57.7108H3.58818ZM8.9636 57.7108C9.04849 57.7238 9.1352 57.7184 9.21778 57.6949C9.30037 57.6714 9.37693 57.6304 9.44212 57.5747C9.50731 57.5189 9.55964 57.4499 9.59551 57.3721C9.63138 57.2944 9.64997 57.2098 9.64997 57.1243C9.64997 57.0387 9.63138 56.9542 9.59551 56.8765C9.55964 56.7987 9.50731 56.7296 9.44212 56.6739C9.37693 56.6182 9.30037 56.5772 9.21778 56.5537C9.1352 56.5302 9.04849 56.5248 8.9636 56.5378H6.34514V53.7088H8.75584C8.89648 53.6873 9.02467 53.6163 9.11733 53.5087C9.20998 53.4011 9.26091 53.264 9.26091 53.1223C9.26091 52.9806 9.20998 52.8435 9.11733 52.7359C9.02467 52.6284 8.89648 52.5574 8.75584 52.5358H6.34514V49.7068H8.9636C9.04849 49.7198 9.1352 49.7144 9.21778 49.6909C9.30037 49.6674 9.37693 49.6264 9.44212 49.5707C9.50731 49.515 9.55964 49.4459 9.59551 49.3681C9.63138 49.2904 9.64997 49.2059 9.64997 49.1203C9.64997 49.0347 9.63138 48.9502 9.59551 48.8725C9.55964 48.7947 9.50731 48.7256 9.44212 48.6699C9.37693 48.6142 9.30037 48.5732 9.21778 48.5497C9.1352 48.5262 9.04849 48.5208 8.9636 48.5338H5.74942C5.66037 48.5295 5.57148 48.5443 5.48864 48.5771C5.40581 48.61 5.33101 48.6601 5.2693 48.7242C5.20758 48.7883 5.16037 48.8648 5.13087 48.9486C5.10138 49.0324 5.09029 49.1216 5.09832 49.21V57.0346C5.08785 57.1235 5.09727 57.2137 5.12588 57.2986C5.1545 57.3835 5.20157 57.461 5.2638 57.5256C5.32603 57.5903 5.40189 57.6404 5.48585 57.6724C5.56981 57.7044 5.65978 57.7175 5.74942 57.7108H8.9636ZM14.7685 57.7108C14.8534 57.7238 14.9401 57.7184 15.0227 57.6949C15.1053 57.6714 15.1818 57.6304 15.247 57.5747C15.3122 57.5189 15.3645 57.4499 15.4004 57.3721C15.4363 57.2944 15.4549 57.2098 15.4549 57.1243C15.4549 57.0387 15.4363 56.9542 15.4004 56.8765C15.3645 56.7987 15.3122 56.7296 15.247 56.6739C15.1818 56.6182 15.1053 56.5772 15.0227 56.5537C14.9401 56.5302 14.8534 56.5248 14.7685 56.5378H12.1224V53.7088H14.533C14.6736 53.6873 14.8019 53.6163 14.8946 53.5087C14.9872 53.4011 15.0382 53.264 15.0382 53.1223C15.0382 52.9806 14.9872 52.8435 14.8946 52.7359C14.8019 52.6284 14.6736 52.5574 14.533 52.5358H12.1224V49.7068H14.7685C14.8534 49.7198 14.9401 49.7144 15.0227 49.6909C15.1053 49.6674 15.1818 49.6264 15.247 49.5707C15.3122 49.515 15.3645 49.4459 15.4004 49.3681C15.4363 49.2904 15.4549 49.2059 15.4549 49.1203C15.4549 49.0347 15.4363 48.9502 15.4004 48.8725C15.3645 48.7947 15.3122 48.7256 15.247 48.6699C15.1818 48.6142 15.1053 48.5732 15.0227 48.5497C14.9401 48.5262 14.8534 48.5208 14.7685 48.5338H11.5267C11.4376 48.5295 11.3486 48.5443 11.2658 48.5771C11.183 48.61 11.1082 48.6601 11.0465 48.7242C10.9847 48.7883 10.9375 48.8648 10.908 48.9486C10.8785 49.0324 10.8675 49.1216 10.8755 49.21V57.0346C10.865 57.1235 10.8744 57.2137 10.903 57.2986C10.9317 57.3835 10.9787 57.461 11.041 57.5256C11.1032 57.5903 11.1791 57.6404 11.263 57.6724C11.347 57.7044 11.437 57.7175 11.5267 57.7108H14.7685ZM20.1578 57.7108C20.6512 57.7642 21.1504 57.7045 21.6171 57.5363C22.0838 57.3681 22.5058 57.0958 22.8507 56.7403C23.1956 56.3848 23.4544 55.9553 23.6071 55.4849C23.7599 55.0145 23.8027 54.5156 23.7322 54.0262V49.072C23.7455 48.9836 23.7395 48.8935 23.7147 48.8076C23.6898 48.7217 23.6466 48.6423 23.5881 48.5745C23.5296 48.5068 23.4571 48.4525 23.3755 48.4152C23.294 48.378 23.2054 48.3587 23.1157 48.3587C23.026 48.3587 22.9373 48.378 22.8557 48.4152C22.7742 48.4525 22.7017 48.5068 22.6432 48.5745C22.5846 48.6423 22.5415 48.7217 22.5167 48.8076C22.4918 48.8935 22.4858 48.9836 22.4991 49.072V54.454C22.4537 55.0433 22.1865 55.5938 21.7511 55.9955C21.3158 56.3971 20.7443 56.6202 20.1509 56.6202C19.5575 56.6202 18.986 56.3971 18.5506 55.9955C18.1152 55.5938 17.848 55.0433 17.8026 54.454V49.072C17.8148 48.9899 17.8088 48.9061 17.7849 48.8266C17.761 48.747 17.7198 48.6738 17.6643 48.6119C17.6088 48.55 17.5402 48.501 17.4636 48.4684C17.3869 48.4358 17.304 48.4205 17.2207 48.4234C17.1347 48.4166 17.0483 48.429 16.9676 48.4596C16.887 48.4902 16.8141 48.5383 16.7545 48.6004C16.6948 48.6624 16.6497 48.737 16.6225 48.8186C16.5954 48.9001 16.5867 48.9867 16.5973 49.072V54.1228C16.5272 54.6109 16.5698 55.1085 16.7218 55.5778C16.8738 56.0471 17.1313 56.4756 17.4746 56.8309C17.8179 57.1861 18.2379 57.4587 18.7029 57.6279C19.1678 57.7971 19.6654 57.8585 20.1578 57.8074M32.6265 57.8074C32.7339 57.8149 32.8417 57.8012 32.9438 57.7671C33.0459 57.733 33.1401 57.6791 33.2212 57.6086C33.3023 57.538 33.3687 57.4523 33.4164 57.3561C33.4641 57.26 33.4923 57.1554 33.4994 57.0484L34.8848 49.6516C34.8959 49.4586 34.8959 49.265 34.8848 49.072C34.8892 48.9959 34.877 48.9199 34.8489 48.849C34.8209 48.7781 34.7776 48.7142 34.7223 48.6616C34.6669 48.6091 34.6007 48.5692 34.5283 48.5448C34.4558 48.5203 34.379 48.5119 34.3029 48.52C34.2235 48.5124 34.1434 48.5208 34.0673 48.5447C33.9913 48.5685 33.9208 48.6073 33.8601 48.6588C33.7994 48.7103 33.7497 48.7734 33.7139 48.8444C33.6781 48.9153 33.6569 48.9927 33.6517 49.072L32.5157 56.179L30.4376 49.0168C30.4201 48.8715 30.3469 48.7387 30.2333 48.6461C30.1196 48.5534 29.9743 48.5083 29.828 48.52C29.68 48.508 29.5332 48.5527 29.4173 48.6451C29.3014 48.7374 29.2252 48.8704 29.2045 49.0168L27.168 56.1514L25.9904 49.072C25.9872 48.9921 25.9673 48.9136 25.9322 48.8417C25.897 48.7698 25.8473 48.7059 25.7861 48.6541C25.725 48.6022 25.6537 48.5635 25.5768 48.5404C25.4999 48.5174 25.419 48.5104 25.3392 48.52C25.2649 48.5137 25.19 48.5237 25.1199 48.5492C25.0498 48.5747 24.9861 48.6151 24.9334 48.6677C24.8806 48.7203 24.84 48.7837 24.8144 48.8536C24.7888 48.9234 24.7787 48.9979 24.785 49.072C24.7769 49.2676 24.8004 49.4633 24.8544 49.6516L26.2398 57.0484C26.2541 57.262 26.3522 57.4614 26.5129 57.6034C26.6737 57.7455 26.8841 57.8188 27.0987 57.8074C27.5698 57.8074 27.8468 57.697 28.0269 57.0484L29.8557 50.521L31.6706 57.0484C31.8646 57.697 32.1693 57.8074 32.5988 57.8074M40.1078 57.8074C40.2485 57.7859 40.3767 57.7149 40.4693 57.6073C40.562 57.4997 40.6129 57.3626 40.6129 57.2209C40.6129 57.0792 40.562 56.9421 40.4693 56.8345C40.3767 56.727 40.2485 56.656 40.1078 56.6344H37.4478V53.7088H39.8584C39.9433 53.7218 40.0301 53.7164 40.1126 53.6929C40.1952 53.6694 40.2717 53.6284 40.3369 53.5727C40.4021 53.517 40.4544 53.4479 40.4903 53.3701C40.5262 53.2924 40.5447 53.2078 40.5447 53.1223C40.5447 53.0367 40.5262 52.9522 40.4903 52.8745C40.4544 52.7967 40.4021 52.7276 40.3369 52.6719C40.2717 52.6162 40.1952 52.5752 40.1126 52.5517C40.0301 52.5282 39.9433 52.5228 39.8584 52.5358H37.4478V49.7068H40.1078C40.2485 49.6852 40.3767 49.6143 40.4693 49.5067C40.562 49.3991 40.6129 49.262 40.6129 49.1203C40.6129 48.9786 40.562 48.8415 40.4693 48.7339C40.3767 48.6263 40.2485 48.5554 40.1078 48.5338H36.8936C36.8029 48.5277 36.7119 48.541 36.6268 48.5728C36.5416 48.6046 36.4643 48.6542 36.4 48.7183C36.3357 48.7823 36.2859 48.8594 36.254 48.9442C36.222 49.029 36.2086 49.1196 36.2147 49.21V57.0346C36.2062 57.1255 36.2179 57.2172 36.249 57.3031C36.2801 57.389 36.3298 57.467 36.3947 57.5316C36.4595 57.5962 36.5378 57.6457 36.6241 57.6767C36.7103 57.7077 36.8024 57.7193 36.8936 57.7108L40.1078 57.8074ZM48.6003 57.8074C49.0021 57.8074 49.1962 57.6004 49.1962 57.1036V49.1686C49.2042 49.0838 49.1938 48.9982 49.1657 48.9178C49.1376 48.8373 49.0925 48.7638 49.0334 48.7022C48.9742 48.6407 48.9024 48.5926 48.8229 48.5612C48.7434 48.5297 48.6581 48.5157 48.5727 48.52C48.4878 48.5154 48.4029 48.5293 48.324 48.5609C48.2451 48.5924 48.174 48.6408 48.1159 48.7026C48.0578 48.7644 48.014 48.8382 47.9876 48.9187C47.9612 48.9992 47.9529 49.0845 47.9631 49.1686V55.5028L43.5298 49.0858C43.1834 48.6304 43.031 48.4786 42.6985 48.4786C42.366 48.4786 42.1027 48.727 42.1027 49.1824V57.1312C42.1027 57.2127 42.1189 57.2935 42.1503 57.3688C42.1816 57.4442 42.2275 57.5127 42.2854 57.5703C42.3433 57.628 42.412 57.6737 42.4877 57.7049C42.5633 57.7361 42.6443 57.7522 42.7262 57.7522C42.8081 57.7522 42.8892 57.7361 42.9648 57.7049C43.0405 57.6737 43.1092 57.628 43.1671 57.5703C43.225 57.5127 43.2709 57.4442 43.3022 57.3688C43.3335 57.2935 43.3497 57.2127 43.3497 57.1312V50.728L47.8523 57.1588C48.1709 57.6142 48.351 57.766 48.6835 57.766M57.6194 57.766C57.9935 57.766 58.2429 57.5314 58.2429 57.0622V49.21C58.2429 48.7546 57.9935 48.4786 57.6194 48.4786C57.2454 48.4786 56.996 48.7546 56.996 49.21V52.5772H52.341V49.21C52.341 48.7546 52.0916 48.4786 51.7175 48.4786C51.3435 48.4786 51.0942 48.7546 51.0942 49.21V57.0622C51.0942 57.5314 51.3158 57.766 51.7175 57.766C52.1193 57.766 52.341 57.5314 52.341 57.0622V53.6536H56.996V57.0622C56.996 57.5314 57.2177 57.766 57.6194 57.766ZM63.6183 57.766C60.9583 57.766 59.5729 55.4338 59.5729 53.1292C59.5729 50.8246 60.9583 48.4786 63.6183 48.4786C66.2783 48.4786 67.636 50.8108 67.636 53.1292C67.636 55.4476 66.2506 57.766 63.6183 57.766ZM63.6183 49.555C61.6094 49.555 60.8475 51.4042 60.8475 53.1292C60.8475 54.8542 61.554 56.6896 63.6183 56.6896C65.6826 56.6896 66.3891 54.8542 66.3891 53.1292C66.3891 51.4042 65.6826 49.555 63.6183 49.555ZM72.9421 57.7108C73.027 57.7238 73.1137 57.7184 73.1963 57.6949C73.2789 57.6714 73.3555 57.6304 73.4206 57.5747C73.4858 57.5189 73.5382 57.4499 73.574 57.3721C73.6099 57.2944 73.6285 57.2098 73.6285 57.1243C73.6285 57.0387 73.6099 56.9542 73.574 56.8765C73.5382 56.7987 73.4858 56.7296 73.4206 56.6739C73.3555 56.6182 73.2789 56.5772 73.1963 56.5537C73.1137 56.5302 73.027 56.5248 72.9421 56.5378H70.296V53.7088H72.7066C72.7915 53.7218 72.8782 53.7164 72.9608 53.6929C73.0434 53.6694 73.12 53.6284 73.1852 53.5727C73.2503 53.517 73.3027 53.4479 73.3385 53.3701C73.3744 53.2924 73.3929 53.2078 73.3929 53.1223C73.3929 53.0367 73.3744 52.9522 73.3385 52.8745C73.3027 52.7967 73.2503 52.7276 73.1852 52.6719C73.12 52.6162 73.0434 52.5752 72.9608 52.5517C72.8782 52.5282 72.7915 52.5228 72.7066 52.5358H70.296V49.7068H72.9421C73.027 49.7198 73.1137 49.7144 73.1963 49.6909C73.2789 49.6674 73.3555 49.6264 73.4206 49.5707C73.4858 49.515 73.5382 49.4459 73.574 49.3681C73.6099 49.2904 73.6285 49.2059 73.6285 49.1203C73.6285 49.0347 73.6099 48.9502 73.574 48.8725C73.5382 48.7947 73.4858 48.7256 73.4206 48.6699C73.3555 48.6142 73.2789 48.5732 73.1963 48.5497C73.1137 48.5262 73.027 48.5208 72.9421 48.5338H69.728C69.6394 48.5292 69.551 48.5439 69.4688 48.5769C69.3865 48.6098 69.3125 48.6602 69.2518 48.7246C69.1911 48.789 69.1453 48.8657 69.1174 48.9496C69.0896 49.0334 69.0805 49.1223 69.0907 49.21V57.0346C69.0779 57.1228 69.0852 57.2127 69.1121 57.2977C69.139 57.3826 69.1847 57.4605 69.246 57.5255C69.3072 57.5904 69.3823 57.6408 69.4657 57.6729C69.5492 57.705 69.6388 57.7179 69.728 57.7108H72.9421ZM80.8252 57.7108C80.9027 57.7164 80.9807 57.7065 81.0543 57.6816C81.1279 57.6567 81.1957 57.6174 81.2539 57.5659C81.312 57.5145 81.3592 57.4519 81.3926 57.382C81.4261 57.3121 81.4451 57.2362 81.4486 57.1588C81.4455 57.0649 81.4215 56.9729 81.3784 56.8894C81.3353 56.8059 81.2741 56.7329 81.1992 56.6758L77.1815 52.798L80.8529 49.4998C80.9347 49.4334 80.9998 49.3489 81.0431 49.2531C81.0863 49.1573 81.1066 49.0528 81.1023 48.9478C81.1024 48.8766 81.0879 48.806 81.0597 48.7405C81.0315 48.675 80.9902 48.616 80.9384 48.5669C80.8865 48.5178 80.8252 48.4798 80.7581 48.4551C80.691 48.4304 80.6195 48.4196 80.5481 48.4234C80.2987 48.4234 80.1186 48.6028 79.8969 48.796L76.1009 52.2322V49.072C76.1143 48.9836 76.1083 48.8935 76.0834 48.8076C76.0586 48.7217 76.0154 48.6423 75.9568 48.5745C75.8983 48.5068 75.8258 48.4525 75.7442 48.4152C75.6627 48.378 75.5741 48.3587 75.4844 48.3587C75.3947 48.3587 75.306 48.378 75.2245 48.4152C75.1429 48.4525 75.0705 48.5068 75.012 48.5745C74.9534 48.6423 74.9102 48.7217 74.8854 48.8076C74.8605 48.8935 74.8545 48.9836 74.8679 49.072V57.076C74.8545 57.1644 74.8605 57.2546 74.8854 57.3404C74.9102 57.4263 74.9534 57.5058 75.012 57.5735C75.0705 57.6412 75.1429 57.6955 75.2245 57.7328C75.306 57.77 75.3947 57.7893 75.4844 57.7893C75.5741 57.7893 75.6627 57.77 75.7442 57.7328C75.8258 57.6955 75.8983 57.6412 75.9568 57.5735C76.0154 57.5058 76.0586 57.4263 76.0834 57.3404C76.1083 57.2546 76.1143 57.1644 76.1009 57.076V53.4052L80.2572 57.5452C80.3334 57.6212 80.4242 57.6811 80.5241 57.7214C80.6241 57.7617 80.7312 57.7816 80.839 57.7798M61.6233 45.622C62.0528 45.622 62.2052 45.3184 62.3299 44.9872L65.1007 37.2868C65.1524 37.1499 65.1805 37.0052 65.1838 36.859C65.1839 36.7877 65.1695 36.7172 65.1413 36.6517C65.1131 36.5863 65.0718 36.5271 65.02 36.4781C64.9681 36.429 64.9068 36.391 64.8397 36.3663C64.7726 36.3416 64.7011 36.3308 64.6296 36.3346C64.1724 36.3346 64.0478 36.6658 63.8954 37.1074L61.6372 43.5934L59.3512 37.0384C59.2265 36.6658 59.1019 36.3346 58.6308 36.3346C58.5594 36.3308 58.4879 36.3416 58.4208 36.3663C58.3537 36.391 58.2924 36.429 58.2405 36.4781C58.1887 36.5271 58.1473 36.5863 58.1192 36.6517C58.091 36.7172 58.0765 36.7877 58.0766 36.859C58.0859 37.0058 58.1186 37.1502 58.1736 37.2868L60.9445 44.9872C61.0553 45.3184 61.2216 45.622 61.651 45.622M71.9724 45.622C71.8369 45.6209 71.7055 45.5758 71.598 45.4937C71.4905 45.4115 71.4127 45.2967 71.3766 45.1666L70.7947 43.5934H66.6385L66.0566 45.1666C66.0278 45.298 65.9539 45.4152 65.8477 45.4983C65.7415 45.5814 65.6098 45.6251 65.4748 45.622C65.4016 45.6296 65.3276 45.6222 65.2574 45.6003C65.1872 45.5784 65.1222 45.5425 65.0664 45.4946C65.0106 45.4468 64.9652 45.3882 64.9329 45.3223C64.9007 45.2564 64.8824 45.1846 64.879 45.1114C64.8974 44.9409 64.9394 44.7737 65.0037 44.6146V44.5456L67.7746 37.0384C67.9685 36.583 68.2456 36.3346 68.6474 36.3346C68.8456 36.3404 69.0359 36.4133 69.1869 36.5412C69.338 36.6691 69.4409 36.8445 69.4786 37.0384L72.3188 44.6146C72.3893 44.7716 72.4315 44.9398 72.4434 45.1114C72.4419 45.184 72.4252 45.2555 72.3945 45.3213C72.3638 45.3872 72.3198 45.446 72.2651 45.494C72.2104 45.542 72.1462 45.5782 72.0767 45.6002C72.0073 45.6223 71.934 45.6297 71.8615 45.622M67.0818 42.5032H70.4484L68.7859 37.7974L67.0818 42.5032ZM80.1879 45.6082C80.5897 45.6082 80.7698 45.4012 80.7698 44.9044V36.9694C80.7831 36.881 80.7771 36.7908 80.7523 36.705C80.7274 36.6191 80.6842 36.5396 80.6257 36.4719C80.5671 36.4042 80.4947 36.3498 80.4132 36.3126C80.3316 36.2753 80.243 36.2561 80.1532 36.2561C80.0635 36.2561 79.9749 36.2753 79.8934 36.3126C79.8119 36.3498 79.7393 36.4042 79.6808 36.4719C79.6223 36.5396 79.5791 36.6191 79.5542 36.705C79.5294 36.7908 79.5234 36.881 79.5367 36.9694V43.4002L75.0203 36.928C74.6878 36.4726 74.5354 36.3208 74.189 36.3208C73.8427 36.3208 73.6072 36.5692 73.6072 37.0246V44.9734C73.5938 45.0618 73.5997 45.1519 73.6246 45.2378C73.6495 45.3236 73.6927 45.4032 73.7512 45.4709C73.8097 45.5386 73.8822 45.5929 73.9638 45.6302C74.0453 45.6674 74.134 45.6867 74.2237 45.6867C74.3134 45.6867 74.402 45.6674 74.4836 45.6302C74.5651 45.5929 74.6376 45.5386 74.6961 45.4709C74.7547 45.4032 74.7979 45.3236 74.8227 45.2378C74.8476 45.1519 74.8535 45.0618 74.8401 44.9734V38.5702L79.3566 45.0286C79.6614 45.4564 79.8416 45.6082 80.1879 45.6082Z" fill="#F0E5E9"/>
<path d="M26.6978 67.8133C26.7016 67.8554 26.6967 67.8979 26.6831 67.9379C26.6695 67.978 26.6477 68.0148 26.619 68.046C26.5903 68.0772 26.5553 68.1021 26.5164 68.119C26.4775 68.136 26.4355 68.1446 26.393 68.1445C26.3512 68.1427 26.3101 68.1327 26.2721 68.1151C26.2341 68.0975 26.2 68.0726 26.1717 68.0418C26.1434 68.0111 26.1215 67.9751 26.1071 67.9358C26.0928 67.8966 26.0863 67.855 26.0882 67.8133V63.3697C26.0882 63.1351 26.1852 63.0109 26.3653 63.0109C26.5454 63.0109 26.6424 63.0937 26.7948 63.3421L29.3578 67.0129V63.3421C29.3532 63.2962 29.359 63.2499 29.375 63.2067C29.391 63.1634 29.4166 63.1243 29.45 63.0924C29.4834 63.0605 29.5236 63.0365 29.5676 63.0224C29.6117 63.0083 29.6584 63.0044 29.7042 63.0109C29.7467 63.0107 29.7887 63.0194 29.8276 63.0363C29.8665 63.0533 29.9014 63.0782 29.9301 63.1093C29.9588 63.1405 29.9807 63.1773 29.9942 63.2174C30.0078 63.2575 30.0128 63.2999 30.009 63.3421V67.7719C30.009 68.0203 29.912 68.1445 29.7042 68.1445C29.4964 68.1445 29.4548 68.0479 29.2747 67.8133L26.7394 64.1425L26.6978 67.8133Z" fill="#F0E5E9"/>
<path d="M31.9213 67.4957H33.4452C33.4876 67.4909 33.5305 67.4959 33.5707 67.5104C33.6108 67.5249 33.647 67.5484 33.6765 67.5791C33.706 67.6099 33.7281 67.647 33.7408 67.6875C33.7535 67.7281 33.7567 67.7711 33.75 67.8131C33.7526 67.8524 33.7462 67.8918 33.7314 67.9284C33.7166 67.965 33.6937 67.9977 33.6644 68.0242C33.6351 68.0508 33.6002 68.0704 33.5622 68.0816C33.5243 68.0928 33.4843 68.0954 33.4452 68.0891H31.6442C31.5981 68.0937 31.5516 68.0879 31.5082 68.072C31.4648 68.0561 31.4256 68.0305 31.3935 67.9973C31.3615 67.964 31.3374 67.924 31.3232 67.8801C31.3091 67.8362 31.3051 67.7897 31.3117 67.7441V63.4109C31.3117 63.1901 31.3948 63.0659 31.6442 63.0659H33.4452C33.4843 63.0596 33.5243 63.0621 33.5622 63.0733C33.6002 63.0846 33.6351 63.1041 33.6644 63.1307C33.6937 63.1572 33.7166 63.19 33.7314 63.2265C33.7462 63.2631 33.7526 63.3025 33.75 63.3419C33.75 63.5627 33.6253 63.6179 33.4452 63.6179H31.9213V65.2877H33.3067C33.5006 65.2877 33.6253 65.3705 33.6253 65.5637C33.6301 65.6059 33.625 65.6487 33.6105 65.6887C33.596 65.7286 33.5723 65.7647 33.5415 65.7941C33.5106 65.8235 33.4734 65.8454 33.4327 65.8581C33.3919 65.8708 33.3488 65.8739 33.3067 65.8673H31.9213V67.4957Z" fill="#F0E5E9"/>
<path d="M34.7753 63.4095C34.7753 63.1887 34.8584 63.0645 35.1077 63.0645H36.3408C36.6579 63.0642 36.9715 63.1309 37.2608 63.2602C37.5501 63.3894 37.8086 63.5782 38.0194 63.8142C38.2301 64.0502 38.3883 64.328 38.4834 64.6293C38.5786 64.9306 38.6085 65.2486 38.5713 65.5623C38.5713 67.0389 37.7678 68.0876 36.4378 68.0876H35.0524C35.0063 68.0923 34.9598 68.0864 34.9164 68.0705C34.873 68.0546 34.8338 68.0291 34.8017 67.9958C34.7697 67.9626 34.7456 67.9225 34.7315 67.8787C34.7173 67.8348 34.7133 67.7883 34.7199 67.7426L34.7753 63.4095ZM35.3848 67.5495H36.2854C37.4907 67.5495 37.9202 66.5558 37.9202 65.5484C37.9202 64.541 37.463 63.575 36.2577 63.575H35.3848V67.5495Z" fill="#F0E5E9"/>
<path d="M40.275 67.4957H41.785C41.8274 67.4909 41.8704 67.4959 41.9105 67.5104C41.9506 67.5249 41.9869 67.5484 42.0164 67.5791C42.0459 67.6099 42.0679 67.647 42.0807 67.6875C42.0934 67.7281 42.0965 67.7711 42.0899 67.8131C42.0925 67.8524 42.0861 67.8918 42.0713 67.9284C42.0564 67.965 42.0335 67.9977 42.0042 68.0242C41.9749 68.0508 41.94 68.0704 41.9021 68.0816C41.8641 68.0928 41.8241 68.0954 41.785 68.0891H39.9979C39.9513 68.0933 39.9044 68.0873 39.8605 68.0715C39.8165 68.0556 39.7766 68.0303 39.7435 67.9974C39.7105 67.9645 39.6851 67.9247 39.6692 67.8809C39.6533 67.8371 39.6473 67.7904 39.6515 67.7441V63.4109C39.6445 63.364 39.6486 63.3161 39.6635 63.271C39.6785 63.226 39.7038 63.185 39.7374 63.1515C39.7711 63.1179 39.8122 63.0927 39.8574 63.0778C39.9026 63.063 39.9508 63.0589 39.9979 63.0659H41.785C41.8241 63.0596 41.8641 63.0621 41.9021 63.0733C41.94 63.0846 41.9749 63.1041 42.0042 63.1307C42.0335 63.1572 42.0564 63.19 42.0713 63.2265C42.0861 63.2631 42.0925 63.3025 42.0899 63.3419C42.0899 63.5627 41.9651 63.6179 41.785 63.6179H40.275V65.2877H41.6604C41.8405 65.2877 41.9651 65.3705 41.9651 65.5637C41.9695 65.6046 41.9646 65.646 41.9509 65.6848C41.9371 65.7236 41.9148 65.7589 41.8856 65.788C41.8564 65.8171 41.821 65.8393 41.782 65.853C41.743 65.8668 41.7015 65.8716 41.6604 65.8673H40.275V67.4957Z" fill="#F0E5E9"/>
<path d="M43.7251 67.8122C43.729 67.8544 43.7239 67.8968 43.7103 67.9369C43.6968 67.977 43.6749 68.0138 43.6462 68.0449C43.6175 68.0761 43.5827 68.101 43.5438 68.118C43.5048 68.1349 43.4628 68.1436 43.4203 68.1434C43.3784 68.1416 43.3374 68.1317 43.2994 68.1141C43.2614 68.0964 43.2273 68.0715 43.199 68.0408C43.1707 68.01 43.1487 67.974 43.1344 67.9348C43.1201 67.8956 43.1137 67.8539 43.1155 67.8122V63.41C43.1155 63.1892 43.2125 63.065 43.448 63.065H44.598C44.7923 63.0436 44.9889 63.0634 45.175 63.1231C45.3611 63.1827 45.5324 63.281 45.6777 63.4113C45.8229 63.5417 45.9388 63.7012 46.0178 63.8793C46.0967 64.0575 46.1369 64.2503 46.1357 64.445C46.1528 64.6305 46.1287 64.8174 46.0651 64.9925C46.0015 65.1677 45.9 65.3267 45.7677 65.4584C45.6355 65.5901 45.4759 65.6912 45.3 65.7546C45.1242 65.8179 44.9365 65.842 44.7503 65.825H44.4732L46.0804 67.6052C46.1217 67.638 46.1545 67.6802 46.1762 67.7282C46.1979 67.7762 46.2077 67.8286 46.205 67.8812C46.1981 67.9495 46.1659 68.0128 46.1147 68.0588C46.0635 68.1047 45.9968 68.1299 45.9279 68.1296C45.8722 68.132 45.8169 68.119 45.7681 68.0923C45.7192 68.0655 45.6787 68.0259 45.6509 67.9778L43.6974 65.8802L43.7251 67.8122ZM43.7251 65.3696H44.598C45.2491 65.3696 45.5262 65.0936 45.5262 64.4588C45.5246 64.3379 45.4982 64.2187 45.4485 64.1084C45.3989 63.9981 45.327 63.8992 45.2374 63.8177C45.1478 63.7362 45.0423 63.6739 44.9276 63.6346C44.8128 63.5954 44.6912 63.5799 44.5702 63.5894H43.7251V65.3696Z" fill="#F0E5E9"/>
<path d="M47.8667 67.4948H49.2521C49.295 67.4905 49.3383 67.4957 49.379 67.5101C49.4196 67.5246 49.4565 67.5478 49.487 67.5782C49.5175 67.6086 49.5409 67.6453 49.5553 67.6858C49.5698 67.7263 49.5751 67.7694 49.5707 67.8122C49.5707 67.9916 49.4461 68.0882 49.2521 68.0882H47.6173C47.3957 68.0882 47.3125 67.9364 47.3125 67.7432V63.341C47.3125 63.134 47.3957 63.0098 47.6173 63.0098C47.6598 63.0096 47.7018 63.0183 47.7407 63.0352C47.7796 63.0522 47.8146 63.077 47.8433 63.1082C47.872 63.1394 47.8938 63.1762 47.9074 63.2163C47.921 63.2564 47.9259 63.2988 47.9221 63.341L47.8667 67.4948Z" fill="#F0E5E9"/>
<path d="M50.8045 67.9222C50.7914 67.9928 50.7536 68.0565 50.6978 68.102C50.642 68.1475 50.5718 68.1718 50.4998 68.1706C50.4263 68.1706 50.3557 68.1415 50.3037 68.0898C50.2518 68.038 50.2227 67.9678 50.2227 67.8946C50.2319 67.7893 50.26 67.6864 50.3058 67.591L51.8574 63.451C51.9544 63.2302 52.0791 63.0508 52.3146 63.0508C52.5502 63.0508 52.6886 63.2302 52.7579 63.451L54.3234 67.591C54.3801 67.6828 54.4134 67.787 54.4204 67.8946C54.4135 67.9702 54.3783 68.0406 54.3219 68.0916C54.2655 68.1427 54.1919 68.1709 54.1157 68.1706C54.0461 68.1631 53.9803 68.1357 53.9262 68.0916C53.8721 68.0475 53.832 67.9886 53.8108 67.9222L53.4922 67.039H51.1509L50.8045 67.9222ZM52.3146 63.7822L51.331 66.5422H53.229L52.3146 63.7822Z" fill="#F0E5E9"/>
<path d="M55.9024 67.8126C55.9024 67.8931 55.8703 67.9703 55.8131 68.0272C55.756 68.0841 55.6785 68.1162 55.5977 68.1162C55.5168 68.1162 55.4393 68.0841 55.3821 68.0272C55.325 67.9703 55.2928 67.8931 55.2928 67.8126V63.369C55.2928 63.1344 55.376 63.0101 55.5699 63.0101C55.7639 63.0101 55.847 63.0929 55.9994 63.3413L58.5624 67.0121V63.3413C58.5584 63.298 58.5638 63.2544 58.5782 63.2133C58.5926 63.1722 58.6157 63.1347 58.6459 63.1033C58.6761 63.0719 58.7128 63.0473 58.7533 63.0312C58.7939 63.0152 58.8375 63.008 58.8811 63.0101C58.9236 63.01 58.9656 63.0186 59.0045 63.0356C59.0434 63.0525 59.0784 63.0774 59.1071 63.1086C59.1358 63.1398 59.1576 63.1766 59.1712 63.2167C59.1847 63.2568 59.1897 63.2992 59.1859 63.3413V67.7712C59.1859 68.0196 59.0889 68.1437 58.9088 68.1437C58.7287 68.1437 58.6317 68.0472 58.4378 67.8126L55.9994 64.1418L55.9024 67.8126Z" fill="#F0E5E9"/>
<path d="M60.5436 63.4096C60.5436 63.1888 60.6267 63.0646 60.8484 63.0646H62.0814C62.4008 63.0605 62.7175 63.1243 63.0101 63.2518C63.3028 63.3793 63.5648 63.5676 63.7785 63.804C63.9923 64.0404 64.1529 64.3196 64.2497 64.6229C64.3464 64.9261 64.3772 65.2464 64.3397 65.5624C64.3397 67.039 63.5361 68.0878 62.1784 68.0878H60.793C60.5713 68.0878 60.4882 67.936 60.4882 67.7428L60.5436 63.4096ZM61.1531 67.5496H62.0537C63.2313 67.5496 63.6608 66.556 63.6608 65.5486C63.6608 64.5412 63.2036 63.5752 61.9983 63.5752H61.1531V67.5496Z" fill="#F0E5E9"/>
<path d="M67.8586 63.589C67.8586 63.6622 67.8294 63.7325 67.7774 63.7842C67.7255 63.836 67.655 63.8651 67.5815 63.8651C67.3044 63.8651 67.2213 63.5615 66.5979 63.5615C66.4981 63.552 66.3974 63.563 66.302 63.5937C66.2067 63.6245 66.1187 63.6744 66.0434 63.7403C65.9681 63.8063 65.9071 63.8868 65.8643 63.9771C65.8215 64.0674 65.7977 64.1655 65.7943 64.2653C65.7943 65.3693 68.1772 64.8449 68.1772 66.5423C68.1797 66.7615 68.1365 66.9788 68.0505 67.1805C67.9644 67.3823 67.8373 67.5641 67.6772 67.7145C67.5171 67.8649 67.3275 67.9806 67.1202 68.0544C66.913 68.1281 66.6927 68.1583 66.4732 68.1431C65.7943 68.1431 65.0878 67.8671 65.0878 67.5359C65.0878 67.2047 65.0877 67.1909 65.3233 67.1909C65.5588 67.1909 65.8497 67.5911 66.4732 67.5911C66.6111 67.5988 66.7492 67.5779 66.8786 67.5296C67.008 67.4814 67.1259 67.4069 67.2249 67.3109C67.3239 67.2149 67.4018 67.0995 67.4536 66.9719C67.5055 66.8444 67.5302 66.7074 67.5261 66.5699C67.5261 65.3693 65.1155 65.9627 65.1155 64.2929C65.1278 64.1115 65.1759 63.9343 65.2571 63.7715C65.3384 63.6087 65.4512 63.4635 65.589 63.3443C65.7267 63.225 65.8867 63.1341 66.0599 63.0766C66.233 63.0191 66.4159 62.9963 66.5979 63.0095C67.2491 63.0095 67.8586 63.2854 67.8586 63.589Z" fill="#F0E5E9"/>
<path d="M72.0001 67.8124C72.002 67.8564 71.9948 67.9004 71.9788 67.9414C71.9627 67.9825 71.9383 68.0198 71.907 68.051C71.8758 68.0821 71.8383 68.1064 71.7971 68.1224C71.7559 68.1383 71.7118 68.1456 71.6676 68.1436C71.6245 68.1437 71.5819 68.135 71.5423 68.1182C71.5027 68.1014 71.467 68.0768 71.4372 68.0458C71.4075 68.0149 71.3843 67.9782 71.3691 67.9381C71.3539 67.898 71.3471 67.8553 71.349 67.8124V63.3412C71.3449 63.2979 71.3503 63.2542 71.3647 63.2132C71.3791 63.1721 71.4021 63.1346 71.4323 63.1032C71.4625 63.0718 71.4992 63.0472 71.5398 63.0311C71.5804 63.015 71.624 63.0078 71.6676 63.01C71.7123 63.0057 71.7574 63.0113 71.7997 63.0265C71.842 63.0416 71.8804 63.0659 71.9122 63.0975C71.944 63.1292 71.9683 63.1675 71.9835 63.2096C71.9987 63.2517 72.0044 63.2966 72.0001 63.3412V65.1628L74.1613 63.1894C74.1976 63.1293 74.2481 63.0789 74.3085 63.0428C74.3689 63.0067 74.4373 62.986 74.5077 62.9824C74.5429 62.9822 74.5778 62.9894 74.61 63.0036C74.6422 63.0177 74.6711 63.0386 74.6946 63.0646C74.7182 63.0907 74.7359 63.1214 74.7466 63.1548C74.7574 63.1882 74.7609 63.2235 74.757 63.2584C74.7568 63.3105 74.7456 63.362 74.7241 63.4096C74.7027 63.4571 74.6714 63.4997 74.6324 63.5344L72.6235 65.4388L74.8817 67.5916C74.9291 67.6204 74.968 67.6611 74.9947 67.7095C75.0214 67.7579 75.035 67.8124 75.0341 67.8676C75.0219 67.941 74.9851 68.0082 74.9298 68.0583C74.8745 68.1084 74.8039 68.1384 74.7294 68.1436C74.6705 68.1421 74.6127 68.1277 74.56 68.1015C74.5073 68.0753 74.4611 68.0378 74.4245 67.9918L72.0693 65.6872L72.0001 67.8124Z" fill="#F0E5E9"/>
<path d="M76.2681 67.9222C76.247 67.9886 76.2069 68.0475 76.1528 68.0916C76.0986 68.1357 76.0328 68.1631 75.9633 68.1706C75.8855 68.1712 75.8102 68.1435 75.7515 68.0927C75.6928 68.0419 75.6548 67.9714 75.6447 67.8946C75.6579 67.7883 75.6908 67.6854 75.7416 67.591L77.321 63.451C77.321 63.2302 77.5011 63.0508 77.7505 63.0508C77.9999 63.0508 78.1245 63.2302 78.2215 63.451L79.7594 67.591C79.8102 67.6854 79.843 67.7883 79.8563 67.8946C79.8563 67.9308 79.8492 67.9667 79.8352 68.0002C79.8213 68.0337 79.8009 68.0641 79.7752 68.0898C79.7495 68.1154 79.7189 68.1357 79.6853 68.1496C79.6517 68.1634 79.6157 68.1706 79.5793 68.1706C79.5055 68.1723 79.4333 68.1485 79.3752 68.1032C79.3171 68.0579 79.2766 67.9939 79.2606 67.9222L78.9281 67.039H76.5729L76.2681 67.9222ZM77.7505 63.7822L76.7946 66.5422H78.748L77.7505 63.7822Z" fill="#F0E5E9"/>
<path d="M81.3667 67.8133C81.3765 67.8595 81.3758 67.9074 81.3647 67.9533C81.3537 67.9993 81.3325 68.0422 81.3026 68.0789C81.2727 68.1156 81.2349 68.1452 81.1921 68.1656C81.1492 68.1859 81.1025 68.1965 81.055 68.1965C81.0076 68.1965 80.9607 68.1859 80.9179 68.1656C80.875 68.1452 80.8373 68.1156 80.8074 68.0789C80.7775 68.0422 80.7563 67.9993 80.7452 67.9533C80.7341 67.9074 80.7334 67.8595 80.7432 67.8133V63.3697C80.7432 63.1351 80.7433 63.0109 81.0342 63.0109C81.3251 63.0109 81.3113 63.0937 81.4637 63.3421L84.0267 67.0129V63.3421C84.0228 63.2999 84.0279 63.2575 84.0415 63.2174C84.055 63.1773 84.0769 63.1405 84.1056 63.1093C84.1343 63.0782 84.1691 63.0533 84.208 63.0363C84.247 63.0194 84.289 63.0107 84.3315 63.0109C84.3773 63.0044 84.424 63.0083 84.4681 63.0224C84.5121 63.0365 84.5523 63.0605 84.5857 63.0924C84.6191 63.1243 84.6447 63.1634 84.6607 63.2067C84.6767 63.2499 84.6825 63.2962 84.6779 63.3421V67.7719C84.6779 68.0203 84.5808 68.1445 84.3592 68.1445C84.1375 68.1445 84.1236 68.0479 83.9297 67.8133L81.3667 64.1425V67.8133Z" fill="#F0E5E9"/>
<path d="M86.5894 67.8124C86.5992 67.8587 86.5985 67.9065 86.5874 67.9525C86.5763 67.9984 86.5551 68.0413 86.5252 68.078C86.4953 68.1148 86.4576 68.1444 86.4148 68.1647C86.3719 68.1851 86.3251 68.1956 86.2776 68.1956C86.2302 68.1956 86.1833 68.1851 86.1405 68.1647C86.0976 68.1444 86.0599 68.1148 86.03 68.078C86.0002 68.0413 85.9789 67.9984 85.9678 67.9525C85.9567 67.9065 85.9561 67.8587 85.9659 67.8124V63.3412C85.9619 63.2979 85.9673 63.2542 85.9817 63.2132C85.9961 63.1721 86.0192 63.1346 86.0494 63.1032C86.0796 63.0718 86.1162 63.0472 86.1568 63.0311C86.1974 63.015 86.2409 63.0078 86.2846 63.01C86.327 63.0098 86.3691 63.0185 86.408 63.0354C86.4469 63.0524 86.4818 63.0773 86.5105 63.1085C86.5392 63.1397 86.561 63.1765 86.5746 63.2165C86.5882 63.2566 86.5932 63.2991 86.5894 63.3412V65.1628L88.7506 63.1894C88.8753 63.0652 88.9723 62.9824 89.097 62.9824C89.1705 62.9824 89.2409 63.0115 89.2929 63.0632C89.3449 63.115 89.3741 63.1852 89.3741 63.2584C89.3738 63.3105 89.3626 63.362 89.3411 63.4096C89.3196 63.4571 89.2884 63.4997 89.2494 63.5344L87.1712 65.4112L89.4295 67.564C89.4692 67.5982 89.501 67.6406 89.5225 67.6883C89.544 67.7359 89.5548 67.7877 89.5541 67.84C89.5472 67.9157 89.5121 67.986 89.4557 68.0371C89.3993 68.0882 89.3256 68.1163 89.2494 68.116C89.1901 68.1166 89.1316 68.1031 89.0786 68.0767C89.0256 68.0503 88.9797 68.0117 88.9446 67.9642L86.5894 65.6596V67.8124Z" fill="#F0E5E9"/>
<path d="M91.0366 67.4957H92.5606C92.603 67.4909 92.646 67.4959 92.6861 67.5104C92.7262 67.5249 92.7624 67.5484 92.792 67.5791C92.8215 67.6099 92.8434 67.647 92.8561 67.6875C92.8689 67.7281 92.872 67.7711 92.8653 67.8131C92.8679 67.8524 92.8616 67.8918 92.8468 67.9284C92.832 67.965 92.8091 67.9977 92.7798 68.0242C92.7505 68.0508 92.7156 68.0704 92.6776 68.0816C92.6397 68.0928 92.5997 68.0954 92.5606 68.0891H90.7596C90.7135 68.0937 90.667 68.0879 90.6236 68.072C90.5802 68.0561 90.5409 68.0305 90.5089 67.9973C90.4768 67.964 90.4529 67.924 90.4387 67.8801C90.4245 67.8362 90.4205 67.7897 90.427 67.7441V63.4109C90.427 63.1901 90.5102 63.0659 90.7596 63.0659H92.5606C92.5997 63.0596 92.6397 63.0621 92.6776 63.0733C92.7156 63.0846 92.7505 63.1041 92.7798 63.1307C92.8091 63.1572 92.832 63.19 92.8468 63.2265C92.8616 63.2631 92.8679 63.3025 92.8653 63.3419C92.8653 63.5627 92.7407 63.6179 92.5606 63.6179H91.0366V65.2877H92.422C92.6021 65.2877 92.7268 65.3705 92.7268 65.5637C92.7312 65.6046 92.7263 65.646 92.7125 65.6848C92.6988 65.7236 92.6764 65.7589 92.6472 65.788C92.618 65.8171 92.5826 65.8393 92.5437 65.853C92.5047 65.8668 92.4631 65.8716 92.422 65.8673H91.0366V67.4957Z" fill="#F0E5E9"/>
<path d="M94.4995 67.8122C94.5093 67.8585 94.5087 67.9063 94.4976 67.9523C94.4865 67.9982 94.4652 68.0411 94.4354 68.0778C94.4055 68.1146 94.3678 68.1442 94.3249 68.1645C94.2821 68.1849 94.2352 68.1954 94.1878 68.1954C94.1403 68.1954 94.0935 68.1849 94.0506 68.1645C94.0078 68.1442 93.9701 68.1146 93.9402 68.0778C93.9103 68.0411 93.889 67.9982 93.8779 67.9523C93.8669 67.9063 93.8662 67.8585 93.8761 67.8122V63.41C93.8691 63.3631 93.8732 63.3152 93.8881 63.2702C93.903 63.2251 93.9283 63.1841 93.962 63.1506C93.9957 63.1171 94.0368 63.0918 94.082 63.077C94.1272 63.0621 94.1753 63.058 94.2224 63.065H95.3723C95.5666 63.0436 95.7633 63.0634 95.9494 63.1231C96.1355 63.1827 96.3068 63.281 96.452 63.4113C96.5973 63.5417 96.7132 63.7012 96.7921 63.8793C96.8711 64.0575 96.9113 64.2503 96.9102 64.445C96.9247 64.6299 96.8989 64.8158 96.8344 64.9898C96.7699 65.1638 96.6684 65.3219 96.5367 65.4531C96.4051 65.5842 96.2464 65.6854 96.0717 65.7496C95.897 65.8138 95.7104 65.8396 95.5247 65.825H95.2476L96.8547 67.6052C96.8937 67.6399 96.925 67.6825 96.9464 67.73C96.9679 67.7776 96.9792 67.8291 96.9794 67.8812C96.9725 67.9495 96.9403 68.0128 96.889 68.0588C96.8378 68.1047 96.7712 68.1299 96.7023 68.1296C96.6466 68.132 96.5913 68.119 96.5425 68.0923C96.4936 68.0655 96.453 68.0259 96.4252 67.9778L94.4718 65.8802L94.4995 67.8122ZM94.4995 65.3696H95.3723C96.0096 65.3696 96.2867 65.0936 96.2867 64.4588C96.2852 64.3379 96.2587 64.2187 96.2091 64.1084C96.1594 63.9981 96.0875 63.8992 95.9979 63.8177C95.9083 63.7362 95.8029 63.6739 95.6881 63.6346C95.5733 63.5954 95.4517 63.5799 95.3308 63.5894H94.4995V65.3696Z" fill="#F0E5E9"/>
<path d="M100.804 67.8126C100.814 67.8588 100.813 67.9066 100.802 67.9526C100.791 67.9985 100.77 68.0414 100.74 68.0782C100.71 68.1149 100.672 68.1445 100.63 68.1648C100.587 68.1852 100.54 68.1958 100.492 68.1958C100.445 68.1958 100.398 68.1852 100.355 68.1648C100.312 68.1445 100.275 68.1149 100.245 68.0782C100.215 68.0414 100.194 67.9985 100.183 67.9526C100.172 67.9066 100.171 67.8588 100.181 67.8126V63.3413C100.177 63.298 100.182 63.2544 100.197 63.2133C100.211 63.1722 100.234 63.1347 100.264 63.1033C100.294 63.0719 100.331 63.0473 100.372 63.0312C100.412 63.0152 100.456 63.008 100.499 63.0101C100.542 63.01 100.584 63.0186 100.623 63.0356C100.662 63.0525 100.697 63.0774 100.725 63.1086C100.754 63.1398 100.776 63.1766 100.789 63.2167C100.803 63.2568 100.808 63.2992 100.804 63.3413V67.8126Z" fill="#F0E5E9"/>
<path d="M102.757 67.8126C102.759 67.8578 102.751 67.903 102.735 67.945C102.718 67.9871 102.692 68.0251 102.659 68.0565C102.626 68.0879 102.587 68.1119 102.544 68.127C102.501 68.142 102.456 68.1477 102.411 68.1437C102.369 68.142 102.328 68.132 102.29 68.1144C102.252 68.0968 102.217 68.0719 102.189 68.0411C102.161 68.0103 102.139 67.9743 102.125 67.9351C102.11 67.8959 102.104 67.8542 102.106 67.8126V63.369C102.106 63.1344 102.189 63.0101 102.411 63.0101C102.632 63.0101 102.66 63.0929 102.84 63.3413L105.375 67.0121V63.3413C105.371 63.298 105.377 63.2544 105.391 63.2133C105.405 63.1722 105.429 63.1347 105.459 63.1033C105.489 63.0719 105.526 63.0473 105.566 63.0312C105.607 63.0152 105.65 63.008 105.694 63.0101C105.736 63.01 105.779 63.0186 105.817 63.0356C105.856 63.0525 105.891 63.0774 105.92 63.1086C105.949 63.1398 105.97 63.1766 105.984 63.2167C105.998 63.2568 106.003 63.2992 105.999 63.3413V67.7712C105.999 68.0196 105.902 68.1437 105.722 68.1437C105.542 68.1437 105.445 68.0472 105.292 67.8126L102.729 64.1418L102.757 67.8126Z" fill="#F0E5E9"/>
<path d="M109.823 63.589C109.827 63.6228 109.824 63.6569 109.814 63.6894C109.804 63.7219 109.787 63.752 109.765 63.7778C109.743 63.8037 109.716 63.8248 109.686 63.8398C109.655 63.8548 109.622 63.8634 109.588 63.8651C109.297 63.8651 109.214 63.5615 108.59 63.5615C108.49 63.552 108.39 63.563 108.294 63.5937C108.199 63.6245 108.111 63.6744 108.036 63.7403C107.96 63.8063 107.899 63.8868 107.857 63.9771C107.814 64.0674 107.79 64.1655 107.787 64.2653C107.787 65.3693 110.17 64.8449 110.17 66.5423C110.174 66.7621 110.132 66.9803 110.047 67.1831C109.962 67.3858 109.835 67.5685 109.674 67.7193C109.514 67.8701 109.323 67.9858 109.115 68.0588C108.907 68.1317 108.685 68.1605 108.465 68.1431C107.787 68.1431 107.08 67.8671 107.08 67.5359C107.08 67.2047 107.163 67.1909 107.357 67.1909C107.551 67.1909 107.842 67.5911 108.493 67.5911C108.631 67.5988 108.769 67.5779 108.899 67.5296C109.028 67.4814 109.146 67.4069 109.245 67.3109C109.344 67.2149 109.422 67.0995 109.474 66.9719C109.526 66.8444 109.55 66.7074 109.546 66.5699C109.546 65.3693 107.135 65.9627 107.135 64.2929C107.148 64.1115 107.196 63.9343 107.277 63.7715C107.358 63.6087 107.471 63.4635 107.609 63.3443C107.747 63.225 107.907 63.1341 108.08 63.0766C108.253 63.0191 108.436 62.9963 108.618 63.0095C109.241 63.0095 109.851 63.2854 109.851 63.589" fill="#F0E5E9"/>
<path d="M111.956 63.6179H111.028C110.848 63.6179 110.723 63.6179 110.723 63.3419C110.721 63.3025 110.727 63.2631 110.742 63.2265C110.757 63.19 110.78 63.1572 110.809 63.1307C110.838 63.1041 110.873 63.0846 110.911 63.0733C110.949 63.0621 110.989 63.0596 111.028 63.0659H113.536C113.575 63.0596 113.615 63.0621 113.653 63.0733C113.691 63.0846 113.726 63.1041 113.755 63.1307C113.784 63.1572 113.807 63.19 113.822 63.2265C113.837 63.2631 113.843 63.3025 113.841 63.3419C113.841 63.5627 113.716 63.6179 113.536 63.6179H112.58V67.7579C112.59 67.8041 112.589 67.8519 112.578 67.8979C112.567 67.9439 112.546 67.9868 112.516 68.0235C112.486 68.0602 112.448 68.0899 112.405 68.1102C112.362 68.1305 112.316 68.1411 112.268 68.1411C112.221 68.1411 112.174 68.1305 112.131 68.1102C112.088 68.0899 112.05 68.0602 112.02 68.0235C111.991 67.9868 111.969 67.9439 111.958 67.8979C111.947 67.8519 111.947 67.8041 111.956 67.7579V63.6179Z" fill="#F0E5E9"/>
<path d="M115.294 67.8127C115.296 67.8544 115.29 67.896 115.275 67.9352C115.261 67.9744 115.239 68.0105 115.211 68.0412C115.183 68.072 115.148 68.0969 115.11 68.1145C115.072 68.1321 115.031 68.1421 114.99 68.1439C114.947 68.144 114.905 68.1354 114.866 68.1184C114.827 68.1015 114.792 68.0766 114.764 68.0454C114.735 68.0142 114.713 67.9774 114.699 67.9373C114.686 67.8972 114.681 67.8548 114.685 67.8127V63.3414C114.678 63.2989 114.682 63.2555 114.695 63.2143C114.707 63.1732 114.729 63.1355 114.758 63.1037C114.787 63.072 114.823 63.0472 114.863 63.031C114.903 63.0148 114.946 63.0078 114.99 63.0103C115.032 63.0101 115.074 63.0187 115.113 63.0357C115.152 63.0526 115.187 63.0775 115.215 63.1087C115.244 63.1399 115.266 63.1767 115.28 63.2168C115.293 63.2569 115.298 63.2993 115.294 63.3414V67.8127Z" fill="#F0E5E9"/>
<path d="M117.402 63.6164H116.446C116.252 63.6164 116.127 63.6164 116.127 63.3404C116.127 63.0644 116.252 63.0645 116.446 63.0645H118.939C119.133 63.0645 119.258 63.161 119.258 63.3404C119.258 63.5198 119.133 63.6164 118.939 63.6164H118.011V67.7564C118.011 67.837 117.979 67.9142 117.922 67.9711C117.865 68.028 117.787 68.06 117.706 68.06C117.625 68.06 117.548 68.028 117.491 67.9711C117.434 67.9142 117.402 67.837 117.402 67.7564V63.6164Z" fill="#F0E5E9"/>
<path d="M120.117 63.3413C120.117 63.1343 120.214 63.0101 120.422 63.0101C120.466 63.008 120.509 63.0152 120.55 63.0312C120.59 63.0473 120.627 63.0719 120.657 63.1033C120.687 63.1347 120.71 63.1722 120.725 63.2133C120.739 63.2544 120.745 63.298 120.741 63.3413V66.3359C120.828 66.6172 121.004 66.8631 121.242 67.0378C121.48 67.2124 121.768 67.3066 122.064 67.3066C122.359 67.3066 122.647 67.2124 122.885 67.0378C123.123 66.8631 123.299 66.6172 123.387 66.3359V63.3413C123.383 63.298 123.388 63.2544 123.402 63.2133C123.417 63.1722 123.44 63.1347 123.47 63.1033C123.5 63.0719 123.537 63.0473 123.578 63.0312C123.618 63.0152 123.662 63.008 123.705 63.0101C123.748 63.01 123.79 63.0186 123.829 63.0356C123.868 63.0525 123.903 63.0774 123.931 63.1086C123.96 63.1398 123.982 63.1766 123.995 63.2167C124.009 63.2568 124.014 63.2992 124.01 63.3413V66.1013C124.01 67.8263 122.93 68.1576 122.071 68.1576C121.212 68.1576 120.117 67.8263 120.117 66.1013V63.3413Z" fill="#F0E5E9"/>
<path d="M125.271 63.3413C125.271 63.2571 125.304 63.1764 125.364 63.1169C125.424 63.0574 125.505 63.024 125.589 63.024C125.674 63.024 125.755 63.0574 125.815 63.1169C125.875 63.1764 125.908 63.2571 125.908 63.3413V66.3359C125.992 66.6226 126.167 66.8744 126.407 67.0535C126.647 67.2327 126.938 67.3295 127.238 67.3295C127.538 67.3295 127.83 67.2327 128.069 67.0535C128.309 66.8744 128.484 66.6226 128.568 66.3359V63.3413C128.564 63.298 128.569 63.2544 128.584 63.2133C128.598 63.1722 128.621 63.1347 128.652 63.1033C128.682 63.0719 128.718 63.0473 128.759 63.0312C128.8 63.0152 128.843 63.008 128.887 63.0101C128.929 63.01 128.971 63.0186 129.01 63.0356C129.049 63.0525 129.084 63.0774 129.113 63.1086C129.141 63.1398 129.163 63.1766 129.177 63.2167C129.19 63.2568 129.195 63.2992 129.192 63.3413V66.1013C129.192 67.8263 128.111 68.1576 127.238 68.1576C126.964 68.186 126.687 68.1516 126.429 68.0568C126.17 67.9621 125.937 67.8095 125.747 67.6109C125.557 67.4123 125.415 67.173 125.333 66.9113C125.25 66.6496 125.229 66.3725 125.271 66.1013V63.3413Z" fill="#F0E5E9"/>
<path d="M125.271 63.3413C125.271 63.2571 125.304 63.1764 125.364 63.1169C125.424 63.0574 125.505 63.024 125.589 63.024C125.674 63.024 125.755 63.0574 125.815 63.1169C125.875 63.1764 125.908 63.2571 125.908 63.3413V66.3359C125.992 66.6226 126.167 66.8744 126.407 67.0535C126.647 67.2327 126.938 67.3295 127.238 67.3295C127.538 67.3295 127.83 67.2327 128.069 67.0535C128.309 66.8744 128.484 66.6226 128.568 66.3359V63.3413C128.564 63.298 128.569 63.2544 128.584 63.2133C128.598 63.1722 128.621 63.1347 128.652 63.1033C128.682 63.0719 128.718 63.0473 128.759 63.0312C128.8 63.0152 128.843 63.008 128.887 63.0101C128.929 63.01 128.971 63.0186 129.01 63.0356C129.049 63.0525 129.084 63.0774 129.113 63.1086C129.141 63.1398 129.163 63.1766 129.177 63.2167C129.19 63.2568 129.195 63.2992 129.192 63.3413V66.1013C129.192 67.8263 128.111 68.1576 127.238 68.1576C126.964 68.186 126.687 68.1516 126.429 68.0568C126.17 67.9621 125.937 67.8095 125.747 67.6109C125.557 67.4123 125.415 67.173 125.333 66.9113C125.25 66.6496 125.229 66.3725 125.271 66.1013V63.3413Z" fill="#F0E5E9"/>
<path d="M131.296 63.6168H130.34C130.302 63.6244 130.263 63.6225 130.226 63.6113C130.189 63.6001 130.155 63.5799 130.128 63.5526C130.1 63.5253 130.08 63.4917 130.069 63.4548C130.057 63.4178 130.056 63.3787 130.063 63.3408C130.061 63.304 130.067 63.2673 130.08 63.2329C130.093 63.1985 130.114 63.1673 130.14 63.1412C130.166 63.1152 130.197 63.0949 130.232 63.0818C130.266 63.0686 130.303 63.0628 130.34 63.0648H132.876C133.069 63.0648 133.194 63.1614 133.194 63.3408C133.194 63.5202 133.069 63.6168 132.876 63.6168H131.92V67.7568C131.929 67.8031 131.929 67.8509 131.918 67.8969C131.907 67.9428 131.885 67.9857 131.855 68.0224C131.826 68.0592 131.788 68.0888 131.745 68.1092C131.702 68.1295 131.655 68.14 131.608 68.14C131.56 68.14 131.514 68.1295 131.471 68.1092C131.428 68.0888 131.39 68.0592 131.36 68.0224C131.33 67.9857 131.309 67.9428 131.298 67.8969C131.287 67.8509 131.286 67.8031 131.296 67.7568V63.6168Z" fill="#F0E5E9"/>
</g>
<defs>
<clipPath id="clip0_16_20052">
<path d="M0 0H133V59C133 64.5228 128.523 69 123 69H0V0Z" fill="white"/>
</clipPath>
</defs>
</svg>
