<svg width="23" height="20" viewBox="0 0 23 20" fill="none" xmlns="http://www.w3.org/2000/svg">
<path d="M20.7539 18.9474V2.10526H2.75391V10.5263H0.753906V2.10526C0.753906 1.52632 0.94974 1.0307 1.34141 0.618421C1.73307 0.20614 2.20391 0 2.75391 0H20.7539C21.3039 0 21.7747 0.20614 22.1664 0.618421C22.5581 1.0307 22.7539 1.52632 22.7539 2.10526V16.8421C22.7539 17.4211 22.5581 17.9167 22.1664 18.3289C21.7747 18.7412 21.3039 18.9474 20.7539 18.9474ZM8.75391 11.5789C7.65391 11.5789 6.71224 11.1667 5.92891 10.3421C5.14557 9.51754 4.75391 8.52632 4.75391 7.36842C4.75391 6.21053 5.14557 5.2193 5.92891 4.39474C6.71224 3.57018 7.65391 3.15789 8.75391 3.15789C9.85391 3.15789 10.7956 3.57018 11.5789 4.39474C12.3622 5.2193 12.7539 6.21053 12.7539 7.36842C12.7539 8.52632 12.3622 9.51754 11.5789 10.3421C10.7956 11.1667 9.85391 11.5789 8.75391 11.5789ZM8.75391 9.47368C9.30391 9.47368 9.77474 9.26754 10.1664 8.85526C10.5581 8.44298 10.7539 7.94737 10.7539 7.36842C10.7539 6.78947 10.5581 6.29386 10.1664 5.88158C9.77474 5.4693 9.30391 5.26316 8.75391 5.26316C8.20391 5.26316 7.73307 5.4693 7.34141 5.88158C6.94974 6.29386 6.75391 6.78947 6.75391 7.36842C6.75391 7.94737 6.94974 8.44298 7.34141 8.85526C7.73307 9.26754 8.20391 9.47368 8.75391 9.47368ZM0.753906 20V17.0526C0.753906 16.4561 0.89974 15.9079 1.19141 15.4079C1.48307 14.9079 1.87057 14.5263 2.35391 14.2632C3.38724 13.7193 4.43724 13.3114 5.50391 13.0395C6.57057 12.7675 7.65391 12.6316 8.75391 12.6316C9.85391 12.6316 10.9372 12.7675 12.0039 13.0395C13.0706 13.3114 14.1206 13.7193 15.1539 14.2632C15.6372 14.5263 16.0247 14.9079 16.3164 15.4079C16.6081 15.9079 16.7539 16.4561 16.7539 17.0526V20H0.753906ZM2.75391 17.8947H14.7539V17.0526C14.7539 16.8596 14.7081 16.6842 14.6164 16.5263C14.5247 16.3684 14.4039 16.2456 14.2539 16.1579C13.3539 15.6842 12.4456 15.3289 11.5289 15.0921C10.6122 14.8553 9.68724 14.7368 8.75391 14.7368C7.82057 14.7368 6.89557 14.8553 5.97891 15.0921C5.06224 15.3289 4.15391 15.6842 3.25391 16.1579C3.10391 16.2456 2.98307 16.3684 2.89141 16.5263C2.79974 16.6842 2.75391 16.8596 2.75391 17.0526V17.8947Z" fill="#00294B"/>
</svg>
